<?xml version="1.0" encoding="UTF-8"?>
<svg id="Layer_1" data-name="Layer 1" xmlns="http://www.w3.org/2000/svg" viewBox="0 0 800 800">
  <defs>
    <style>
      .cls-1 {
        fill: none;
        stroke: #5059cd;
        stroke-miterlimit: 10;
        stroke-width: 5px;
      }
    </style>
  </defs>
  <g id="Layer_2" data-name="Layer 2">
    <path class="cls-1" d="m603.19,181.69c-36.6-36.6-85.3-56.8-137.2-56.8s-100.5,20.2-137.2,56.8c-36.6,36.6-56.8,85.4-56.8,137.2v116.6h-59.9v-188.1c0-11.5-9.4-20.9-20.9-20.9h-23.9c-24.7,0-44.8,20.1-44.8,44.8v194.4c0,32.8,26.7,59.4,59.4,59.4h90.1v98.1c0,31.5,25.6,57.1,57.1,57.1h32.4v-.2h164c24.7,0,44.8-20.1,44.8-44.8v-23.9c0-11.5-9.4-20.9-20.9-20.9h-187.9v-65.5h104.3c106.9,0,193.9-87,193.9-193.9v-12.3c.3-51.8-19.9-100.5-56.5-137.1h0Zm-137.1,253.8h-101.4c-1.6,0-3-1.3-3-3v-113.7c0-57.6,46.8-104.4,104.4-104.4s104.4,46.8,104.4,104.4v12.3c0,57.6-46.9,104.4-104.4,104.4Z"/>
  </g>
</svg>