<?xml version="1.0" encoding="UTF-8"?>
<svg xmlns="http://www.w3.org/2000/svg" xmlns:xlink="http://www.w3.org/1999/xlink" version="1.1" viewBox="0 0 1329.08 1291.99">
  <defs>
    <style>
      .cls-1 {
        fill: #4caf50;
      }

      .cls-2 {
        fill: url(#linear-gradient);
      }

      .cls-3 {
        fill: #ff6f00;
      }

      .cls-4 {
        fill: url(#linear-gradient-2);
        filter: url(#drop-shadow-2);
      }

      .cls-5 {
        fill: #f44336;
      }

      .cls-6 {
        fill: #00bcd4;
      }
    </style>
    <linearGradient id="linear-gradient" x1="1804.77" y1="2436.56" x2="2199.07" y2="2794.52" gradientTransform="translate(769.79 -3220.8) rotate(43.84) scale(1.3 1.1)" gradientUnits="userSpaceOnUse">
      <stop offset="0" stop-color="#f44336"/>
      <stop offset=".51" stop-color="#ff6f00"/>
      <stop offset="1" stop-color="#4caf50"/>
    </linearGradient>
    <linearGradient id="linear-gradient-2" x1="524.04" y1="787.93" x2="906.54" y2="384.44" gradientUnits="userSpaceOnUse">
      <stop offset="0" stop-color="#00bcd4"/>
      <stop offset="1" stop-color="#5059cd"/>
    </linearGradient>
    <filter id="drop-shadow-2" filterUnits="userSpaceOnUse">
      <feOffset dx="-4" dy="11"/>
      <feGaussianBlur result="blur" stdDeviation="5"/>
      <feFlood flood-color="#0b2f82" flood-opacity=".75"/>
      <feComposite in2="blur" operator="in"/>
      <feComposite in="SourceGraphic"/>
    </filter>
  </defs>
  <!-- Generator: Adobe Illustrator 28.6.0, SVG Export Plug-In . SVG Version: 1.2.0 Build 709)  -->
  <g>
    <g id="Layer_5">
      <g>
        <path class="cls-2" d="M909.53,383.06c-44.15-44.15-102.85-68.47-165.29-68.47s-121.15,24.32-165.3,68.49c-44.15,44.16-68.44,102.87-68.42,165.32l.05,140.54h-72.21v-226.68c0-13.88-11.3-25.19-25.19-25.19h-28.79c-29.76,0-53.97,24.21-53.97,53.97v234.21c0,39.49,32.14,71.63,71.63,71.63h108.54v118.21c0,37.97,30.88,68.85,68.85,68.85h39.08v-.2h197.61c29.76,0,53.97-24.21,53.97-53.96v-28.79c0-13.9-11.29-25.19-25.19-25.19h-226.4v-78.92h125.73c128.83,0,233.68-104.82,233.71-233.66v-14.86c.02-62.43-24.29-121.14-68.42-165.3ZM744.32,688.93h-122.21c-1.98,0-3.6-1.6-3.6-3.6v-137c0-69.37,56.44-125.79,125.81-125.79s125.81,56.43,125.81,125.79v14.81c0,69.37-56.44,125.79-125.81,125.79Z"/>
        <g>
          <path class="cls-5" d="M844.91,875.67h-226.39v-78.92h-107.94v118.21c0,37.97,30.88,68.85,68.85,68.85h39.09v-.21h197.61c29.76,0,53.97-24.21,53.97-53.95v-28.79c0-13.9-11.29-25.19-25.19-25.19ZM438.36,688.8v-226.68c0-13.88-11.31-25.19-25.19-25.19h-28.79c-29.76,0-53.97,24.22-53.97,53.98v234.21c0,39.49,32.13,71.63,71.63,71.63h108.54l-.03-107.95h-72.19Z"/>
          <path class="cls-1" d="M845.32,875.67h-226.39v-78.92h-107.94v118.21c0,37.97,30.88,68.85,68.85,68.85h39.09v-.21h197.61c29.76,0,53.97-24.21,53.97-53.95v-28.79c0-13.9-11.29-25.19-25.19-25.19Z"/>
          <path class="cls-5" d="M412.92,415.99h-28.79c-29.76,0-53.97-24.21-53.97-53.97s24.21-53.97,53.97-53.97,53.97,24.21,53.97,53.97v28.78c0,13.89-11.3,25.19-25.19,25.19Z"/>
          <path class="cls-1" d="M944.94,983.68c-29.76,0-53.97-24.21-53.97-53.97v-28.78c0-13.89,11.3-25.19,25.19-25.19h28.78c29.76,0,53.97,24.21,53.97,53.97s-24.21,53.97-53.97,53.97Z"/>
        </g>
        <path class="cls-3" d="M412.92,416.12h-28.79c-29.76,0-53.97-24.21-53.97-53.97s24.21-53.97,53.97-53.97,53.97,24.21,53.97,53.97v28.78c0,13.89-11.3,25.19-25.19,25.19Z"/>
        <path class="cls-6" d="M944.94,983.81c-29.76,0-53.97-24.21-53.97-53.97v-28.78c0-13.89,11.3-25.19,25.19-25.19h28.78c29.76,0,53.97,24.21,53.97,53.97s-24.21,53.97-53.97,53.97Z"/>
        <path class="cls-4" d="M909.53,383.06c-44.15-44.15-102.85-68.47-165.29-68.47s-121.15,24.32-165.3,68.49c-44.15,44.16-68.44,102.87-68.42,165.32l.06,248.49h233.66c128.83,0,233.68-104.82,233.71-233.66v-14.86c.02-62.43-24.29-121.14-68.42-165.3ZM744.32,688.93h-122.21c-1.98,0-3.6-1.6-3.6-3.6v-137c0-69.37,56.44-125.79,125.81-125.79s125.81,56.43,125.81,125.79v14.81c0,69.37-56.44,125.79-125.81,125.79Z"/>
      </g>
    </g>
  </g>
</svg>