<?xml version="1.0" encoding="UTF-8"?>
<svg id="Layer_2" data-name="Layer 2" xmlns="http://www.w3.org/2000/svg" viewBox="0 0 1000 1000">
  <defs>
    <style>
      .cls-1 {
        opacity: .5;
      }

      .cls-2 {
        fill: #ccd2d6;
        stroke-width: 0px;
      }

      .cls-3 {
        opacity: .75;
      }

      .cls-4 {
        opacity: .25;
      }
    </style>
  </defs>
  <g class="cls-4">
    <path class="cls-2" d="m18.19,557.13c0-24.47,11.93-46.61,31.22-62.64,14.47-12.04,33.09-20.63,53.93-24.15v32.16c0,12.56,10.17,22.73,22.73,22.73h13.49l17.38,122.94c-8.03-1.62-16.42-2.47-25.04-2.47h-7.15c-58.84,0-106.56-39.66-106.56-88.57Z"/>
    <path class="cls-2" d="m981.81,911.43c0,24.46-11.93,46.59-31.22,62.63-19.28,16.03-45.93,25.95-75.34,25.95H124.75c-58.84,0-106.56-39.66-106.56-88.57,0-24.46,11.93-46.61,31.22-62.63,19.28-16.03,45.93-25.95,75.34-25.95h7.15c17.74,0,34.47-3.61,49.16-9.97,17.37,70.69,81,121.54,155.17,121.54h314.55c11.71,0,23.16-1.27,34.2-3.69,12.7,7.02,26.58,12.19,41.25,15.15h.01c9.36,1.91,19.02,2.89,28.96,2.89,14.17,0,27.86-2.02,40.79-5.8,53.7-15.68,94.54-61.49,102.95-117.92,47.45,8.95,82.86,44.23,82.86,86.37Z"/>
    <path class="cls-2" d="m981.81,557.13c0,24.46-11.93,46.61-31.22,62.63-19.28,16.04-45.93,25.95-75.34,25.95h-44.84l17.04-120.47h13.48c12.56,0,22.75-10.17,22.75-22.73v-33.68c54.92,3.57,98.13,41.74,98.13,88.31Z"/>
    <path class="cls-2" d="m18.19,202.82c0-24.46,11.93-46.59,31.22-62.63,19.28-16.03,45.93-25.95,75.34-25.95h750.49c58.85,0,106.56,39.66,106.56,88.57,0,24.46-11.93,46.61-31.22,62.64-19.28,16.02-45.93,25.95-75.34,25.95h-27.63c-29.43,0-56.08,9.91-75.35,25.95-19.29,16.02-31.22,38.17-31.22,62.63,0,7.34,1.07,14.46,3.09,21.27h-18.8c-9.14-7.31-19.95-12.63-31.76-15.32l-90.9-229.96c-3.55-8.99-13.72-13.39-22.71-9.84l-38.09,15.06c-8.99,3.55-13.39,13.72-9.84,22.71l85.92,217.35h-246.78c1.45-4.89,2.41-9.95,2.84-15.13l79.94-202.22c3.55-8.99-.86-19.16-9.84-22.71l-38.09-15.06c-9-3.55-19.16.86-22.72,9.84l-58.9,149.01c-16.42-8.6-35.85-13.57-56.68-13.57H124.75c-58.84,0-106.56-39.66-106.56-88.58Z"/>
    <path class="cls-2" d="m894.75,375.66c0,14.31-5.19,27.41-13.8,37.51-3.84-7.1-11.37-11.93-20.02-11.93h-76.03c-3.8-7.71-5.94-16.39-5.94-25.58,0-31.98,25.92-57.9,57.89-57.9s57.9,25.92,57.9,57.9Z"/>
    <path class="cls-2" d="m176.06,783.41c-7.79,3.91-16.59,6.11-25.9,6.11-31.97,0-57.89-25.91-57.89-57.89s25.92-57.89,57.89-57.89c3.6,0,7.11.33,10.54.96l15.36,108.72Z"/>
  </g>
  <g>
    <g>
      <g>
        <g class="cls-1">
          <path class="cls-2" d="m261.68,525.23H126.08c-12.56,0-22.73-10.17-22.73-22.73v-78.52c0-12.56,10.17-22.73,22.73-22.73h135.6c-18.2,14.52-29.86,36.89-29.86,61.99s11.66,47.47,29.86,61.99Z"/>
        </g>
        <g class="cls-1">
          <path class="cls-2" d="m390.4,463.24c0-22.44-9.32-42.69-24.29-57.11l1.93-4.89h249.92l2.21,5.61c-14.54,14.36-23.56,34.31-23.56,56.38,0,25.1,11.66,47.47,29.86,61.99h-265.94c18.2-14.52,29.86-36.89,29.86-61.99Z"/>
        </g>
        <g class="cls-1">
          <path class="cls-2" d="m883.67,423.98v78.52c0,12.56-10.18,22.73-22.75,22.73h-135.59c18.2-14.52,29.86-36.89,29.86-61.99s-11.66-47.47-29.86-61.99h135.59c12.56,0,22.75,10.17,22.75,22.73Z"/>
        </g>
        <path class="cls-2" d="m270.25,528.23H126.08c-14.19,0-25.73-11.54-25.73-25.73v-78.52c0-14.19,11.54-25.73,25.73-25.73h144.17l-6.7,5.35c-18.26,14.57-28.73,36.31-28.73,59.65s10.47,45.08,28.73,59.65l6.7,5.34Zm-144.17-123.99c-10.88,0-19.73,8.85-19.73,19.73v78.52c0,10.88,8.85,19.73,19.73,19.73h127.65c-15.92-15.44-24.91-36.53-24.91-58.99s8.99-43.55,24.91-58.99h-127.65Z"/>
        <path class="cls-2" d="m635.05,528.23h-283.08l6.7-5.34c18.26-14.57,28.73-36.31,28.73-59.65,0-20.92-8.3-40.44-23.37-54.94l-1.45-1.4,3.42-8.65h254l3.69,9.36-1.41,1.39c-14.61,14.43-22.66,33.69-22.66,54.25,0,23.34,10.47,45.08,28.73,59.65l6.7,5.34Zm-266.56-6h250.05c-15.92-15.44-24.91-36.53-24.91-58.99s8.17-41.7,23.05-57.1l-.75-1.89h-245.84l-.45,1.14c15.35,15.49,23.77,35.95,23.77,57.85s-8.99,43.55-24.91,58.99Z"/>
        <path class="cls-2" d="m860.93,528.23h-144.16l6.7-5.34c18.26-14.57,28.73-36.31,28.73-59.65s-10.47-45.08-28.73-59.65l-6.7-5.35h144.16c14.2,0,25.75,11.54,25.75,25.73v78.52c0,14.19-11.55,25.73-25.75,25.73Zm-127.64-6h127.64c10.89,0,19.75-8.85,19.75-19.73v-78.52c0-10.88-8.86-19.73-19.75-19.73h-127.64c15.92,15.44,24.92,36.53,24.92,58.99s-8.99,43.55-24.92,58.99Z"/>
        <g class="cls-3">
          <path class="cls-2" d="m725.34,525.23c-13.55,10.83-30.73,17.3-49.43,17.3s-35.88-6.47-49.43-17.3h-265.94c-13.55,10.83-30.74,17.3-49.43,17.3s-35.88-6.47-49.43-17.3h-122.11l4.51,31.9,33.9,239.85c11.14,78.83,78.62,137.44,158.25,137.44h314.55c11.71,0,23.16-1.27,34.2-3.69-44.79-24.77-75.12-72.48-75.12-127.28,0-50.1,25.36-94.28,63.94-120.41h-24.93c-8.88,0-16.07-7.2-16.07-16.08v-64.68c0-8.88,7.18-16.08,16.07-16.08h44.9c8.87,0,16.07,7.2,16.07,16.08v63.07c14.27-4.7,29.52-7.23,45.36-7.23,25.73,0,49.89,6.68,70.85,18.42l16.89-119.42,4.51-31.9h-122.11Zm-379,287.15c0,8.87-7.2,16.07-16.07,16.07h-44.9c-8.87,0-16.07-7.2-16.07-16.07v-64.69c0-8.87,7.2-16.07,16.07-16.07h44.9c8.87,0,16.07,7.2,16.07,16.07v64.69Zm0-145.42c0,8.88-7.2,16.08-16.07,16.08h-44.9c-8.87,0-16.07-7.2-16.07-16.08v-64.68c0-8.88,7.2-16.08,16.07-16.08h44.9c8.87,0,16.07,7.2,16.07,16.08v64.68Zm120.24,145.42c0,8.87-7.2,16.07-16.07,16.07h-44.9c-8.87,0-16.07-7.2-16.07-16.07v-64.69c0-8.87,7.2-16.07,16.07-16.07h44.9c8.87,0,16.07,7.2,16.07,16.07v64.69Zm0-145.42c0,8.88-7.2,16.08-16.07,16.08h-44.9c-8.87,0-16.07-7.2-16.07-16.08v-64.68c0-8.88,7.2-16.08,16.07-16.08h44.9c8.87,0,16.07,7.2,16.07,16.08v64.68Zm120.24,145.42c0,8.87-7.2,16.07-16.07,16.07h-44.9c-8.87,0-16.07-7.2-16.07-16.07v-64.69c0-8.87,7.2-16.07,16.07-16.07h44.9c8.87,0,16.07,7.2,16.07,16.07v64.69Zm0-145.42c0,8.88-7.2,16.08-16.07,16.08h-44.9c-8.87,0-16.07-7.2-16.07-16.08v-64.68c0-8.88,7.2-16.08,16.07-16.08h44.9c8.87,0,16.07,7.2,16.07,16.08v64.68Z"/>
        </g>
        <path class="cls-2" d="m650.78,937.42h-314.55c-39.23,0-77.15-14.17-106.77-39.89-29.62-25.72-48.95-61.28-54.45-100.13l-38.89-275.17h126.62l.82.66c13.42,10.73,30.31,16.64,47.56,16.64s33.93-5.75,47.56-16.64l.82-.66h268.04l.82.66c13.61,10.89,30.06,16.64,47.56,16.64s33.93-5.75,47.56-16.64l.82-.66h126.62l-22.5,159.07-3.82-2.14c-21.07-11.8-45.06-18.04-69.38-18.04-15.21,0-30.16,2.38-44.43,7.08l-3.94,1.3v-67.21c0-7.21-5.86-13.08-13.06-13.08h-44.9c-7.2,0-13.06,5.87-13.06,13.08v64.68c0,7.21,5.86,13.08,13.06,13.08h34.71l-8.1,5.48c-39.21,26.56-62.62,70.64-62.62,117.93,0,51.79,28.19,99.56,73.57,124.66l6.96,3.85-7.77,1.7c-11.38,2.49-23.1,3.76-34.84,3.76Zm-507.76-409.19l37.93,268.33c10.87,76.88,77.63,134.86,155.28,134.86h314.55c8.67,0,17.33-.72,25.84-2.13-43.22-27.04-69.76-74.54-69.76-125.84,0-46.15,21.4-89.38,57.68-117.41h-15.67c-10.51,0-19.06-8.56-19.06-19.08v-64.68c0-10.52,8.55-19.08,19.06-19.08h44.9c10.51,0,19.06,8.56,19.06,19.08v58.99c13.68-4.08,27.92-6.15,42.37-6.15,23.89,0,47.47,5.77,68.48,16.73l20.31-143.62h-117.62c-14.53,11.32-31.96,17.3-50.47,17.3s-35.95-5.98-50.47-17.3h-263.86c-14.35,11.16-32.23,17.3-50.47,17.3s-36.13-6.14-50.47-17.3h-117.61Z"/>
        <g>
          <path class="cls-2" d="m586.81,602.28v64.68c0,8.88-7.2,16.08-16.07,16.08h-44.9c-8.87,0-16.07-7.2-16.07-16.08v-64.68c0-8.88,7.2-16.08,16.07-16.08h44.9c8.87,0,16.07,7.2,16.07,16.08Z"/>
          <rect class="cls-2" x="509.78" y="731.62" width="77.03" height="96.82" rx="16.07" ry="16.07"/>
          <path class="cls-2" d="m466.57,602.28v64.68c0,8.88-7.2,16.08-16.07,16.08h-44.9c-8.87,0-16.07-7.2-16.07-16.08v-64.68c0-8.88,7.2-16.08,16.07-16.08h44.9c8.87,0,16.07,7.2,16.07,16.08Z"/>
          <rect class="cls-2" x="389.54" y="731.62" width="77.03" height="96.82" rx="16.07" ry="16.07"/>
          <path class="cls-2" d="m346.34,602.28v64.68c0,8.88-7.2,16.08-16.07,16.08h-44.9c-8.87,0-16.07-7.2-16.07-16.08v-64.68c0-8.88,7.2-16.08,16.07-16.08h44.9c8.87,0,16.07,7.2,16.07,16.08Z"/>
          <rect class="cls-2" x="269.31" y="731.62" width="77.03" height="96.82" rx="16.07" ry="16.07"/>
          <path class="cls-2" d="m709.83,602.28v63.07c-12.9,4.22-25.01,10.22-36.04,17.68h-24.93c-8.88,0-16.07-7.2-16.07-16.08v-64.68c0-8.88,7.18-16.08,16.07-16.08h44.9c8.87,0,16.07,7.2,16.07,16.08Z"/>
        </g>
        <g>
          <g class="cls-4">
            <path class="cls-2" d="m390.4,463.24c0,25.1-11.66,47.47-29.86,61.99-13.55,10.83-30.74,17.3-49.43,17.3s-35.88-6.47-49.43-17.3c-18.2-14.52-29.86-36.89-29.86-61.99s11.66-47.47,29.86-61.99c8.85-7.08,19.25-12.29,30.62-15.06,6.02-1.46,12.33-2.24,18.81-2.24,18.69,0,35.88,6.47,49.43,17.3,1.93,1.54,3.79,3.18,5.57,4.89,14.98,14.41,24.29,34.66,24.29,57.11Z"/>
          </g>
          <g class="cls-1">
            <circle class="cls-2" cx="311.11" cy="463.24" r="38.26"/>
          </g>
        </g>
        <g>
          <g class="cls-4">
            <path class="cls-2" d="m755.2,463.24c0,25.1-11.66,47.47-29.86,61.99-13.55,10.83-30.73,17.3-49.43,17.3s-35.88-6.47-49.43-17.3c-18.2-14.52-29.86-36.89-29.86-61.99,0-22.07,9.01-42.02,23.56-56.38,2-1.99,4.1-3.86,6.3-5.61,13.55-10.83,30.73-17.3,49.43-17.3,6.08,0,11.99.68,17.67,1.98,11.81,2.68,22.62,8,31.76,15.32,18.2,14.52,29.86,36.89,29.86,61.99Z"/>
          </g>
          <path class="cls-2" d="m311.11,545.53c-18.6,0-36.82-6.38-51.3-17.95-19.69-15.71-30.99-39.16-30.99-64.34s11.29-48.63,30.99-64.34c9.41-7.53,20.11-12.79,31.78-15.63,6.34-1.54,12.91-2.32,19.52-2.32,18.6,0,36.82,6.38,51.3,17.95,1.9,1.51,3.84,3.21,5.77,5.07,16.26,15.65,25.22,36.7,25.22,59.27,0,25.18-11.29,48.63-30.99,64.34-14.48,11.58-32.7,17.95-51.3,17.95Zm0-158.58c-6.13,0-12.22.72-18.1,2.15-10.82,2.63-20.73,7.51-29.46,14.49-18.26,14.57-28.73,36.31-28.73,59.65s10.47,45.08,28.73,59.65c13.62,10.89,30.07,16.64,47.56,16.64s33.94-5.75,47.56-16.64c18.26-14.57,28.73-36.31,28.73-59.65,0-20.93-8.3-40.44-23.37-54.94-1.79-1.72-3.59-3.3-5.35-4.7-13.63-10.89-30.07-16.65-47.57-16.65Z"/>
          <path class="cls-2" d="m675.91,545.53c-18.87,0-36.61-6.21-51.3-17.95-19.69-15.71-30.99-39.16-30.99-64.34,0-22.17,8.68-42.95,24.45-58.51,2.04-2.03,4.24-3.99,6.54-5.82,14.69-11.74,32.43-17.95,51.3-17.95,6.21,0,12.38.69,18.34,2.06,11.96,2.72,23.36,8.21,32.96,15.9,19.69,15.71,30.99,39.16,30.99,64.34s-11.3,48.63-30.99,64.34c-14.69,11.74-32.43,17.95-51.3,17.95Zm0-158.58c-17.49,0-33.94,5.75-47.56,16.64-2.13,1.7-4.17,3.51-6.06,5.4-14.62,14.43-22.67,33.7-22.67,54.25,0,23.34,10.47,45.08,28.73,59.65,13.62,10.89,30.07,16.64,47.56,16.64s33.94-5.75,47.56-16.64c18.26-14.57,28.73-36.31,28.73-59.65s-10.47-45.08-28.73-59.65c-8.9-7.12-19.47-12.22-30.55-14.74-5.53-1.26-11.25-1.91-17.01-1.91Z"/>
          <g class="cls-1">
            <circle class="cls-2" cx="675.91" cy="463.24" r="38.26"/>
          </g>
        </g>
        <g class="cls-1">
          <path class="cls-2" d="m693.58,385.93c-5.68-1.3-11.59-1.98-17.67-1.98-18.7,0-35.88,6.47-49.43,17.3-1.1.88-2.18,1.78-3.22,2.72-.53.47-1.04.94-1.56,1.43-.52.48-1.02.97-1.52,1.46l-2.21-5.61-85.92-217.35c-3.55-8.99.86-19.16,9.84-22.71l38.09-15.06c8.99-3.55,19.16.86,22.71,9.84l90.9,229.96Z"/>
          <path class="cls-2" d="m453.95,183.89l-85.91,217.35-1.93,4.89s-.11-.09-.15-.14c-.34-.33-.68-.64-1.02-.96-1.42-1.31-2.88-2.58-4.39-3.79-13.55-10.83-30.74-17.3-49.43-17.3-6.48,0-12.79.77-18.81,2.24l91-230.22c3.56-8.99,13.72-13.39,22.72-9.84l38.09,15.06c8.99,3.55,13.39,13.72,9.84,22.71Z"/>
        </g>
        <g>
          <path class="cls-2" d="m619.04,412.16l-3.87-9.81-85.92-217.35c-2.01-5.09-1.92-10.67.26-15.69,2.18-5.03,6.18-8.9,11.27-10.91l38.09-15.06c5.09-2.01,10.66-1.92,15.69.26,5.03,2.18,8.9,6.18,10.91,11.27l93,235.26-5.55-1.27c-5.52-1.26-11.24-1.9-17-1.9-17.49,0-33.94,5.75-47.56,16.64-1.14.91-2.15,1.76-3.09,2.61-.51.46-1,.9-1.49,1.37-.53.49-1.01.97-1.5,1.44l-3.23,3.15Zm-32.64-264.27c-1.8,0-3.61.34-5.33,1.02l-38.09,15.06c-3.6,1.42-6.43,4.16-7.97,7.72-1.54,3.56-1.61,7.5-.18,11.1l86.52,218.86c.99-.89,2.06-1.79,3.26-2.75,14.69-11.74,32.43-17.95,51.3-17.95,4.33,0,8.64.34,12.87,1l-88.9-224.88c-1.42-3.6-4.16-6.43-7.72-7.98-1.85-.8-3.81-1.2-5.77-1.2Z"/>
          <path class="cls-2" d="m367.21,411.48l-3.23-3.23s-.09-.08-.15-.14c-.29-.28-.62-.58-.94-.89-1.38-1.28-2.8-2.5-4.22-3.64-13.62-10.89-30.07-16.64-47.56-16.64-6.13,0-12.22.72-18.1,2.15l-5.63,1.37,93.13-235.6c4.17-10.51,16.1-15.68,26.61-11.53l38.09,15.06c10.51,4.15,15.69,16.09,11.53,26.6h0s-89.53,226.49-89.53,226.49Zm-56.11-30.54c18.6,0,36.82,6.38,51.3,17.95.84.67,1.67,1.36,2.5,2.08l.33-.85,85.91-217.35c2.94-7.44-.72-15.88-8.16-18.82l-38.09-15.06c-7.44-2.94-15.89.73-18.83,8.16l-88.96,225.05c4.59-.78,9.27-1.18,13.98-1.18Zm142.84-197.05h0,0Z"/>
        </g>
        <path class="cls-2" d="m847.45,525.23l-4.51,31.9H144.08l-4.51-31.9h122.11c13.55,10.83,30.74,17.3,49.43,17.3s35.88-6.47,49.43-17.3h265.94c13.55,10.83,30.73,17.3,49.43,17.3s35.88-6.47,49.43-17.3h122.11Z"/>
      </g>
      <g>
        <g class="cls-1">
          <path class="cls-2" d="m833.91,681.27c-2.57-1.65-5.19-3.23-7.86-4.72-20.97-11.74-45.12-18.42-70.85-18.42-15.84,0-31.09,2.53-45.36,7.23-12.9,4.22-25.01,10.22-36.04,17.68-38.58,26.13-63.94,70.31-63.94,120.41,0,54.8,30.33,102.51,75.12,127.28,12.7,7.02,26.58,12.19,41.25,15.15h.01c9.36,1.91,19.02,2.89,28.96,2.89,14.17,0,27.86-2.02,40.79-5.8,60.41-17.64,104.54-73.42,104.54-139.53,0-51.27-26.54-96.32-66.62-122.18Zm-22.23,136.99c0,21.88-4.91,38.77-14.74,50.64-7.92,9.56-18.45,15.27-31.59,17.13-3.18.46-6.5.68-9.98.68-18.04,0-31.98-5.98-41.85-17.92-8.43-10.2-13.24-23.93-14.47-41.24-.22-2.99-.33-6.08-.33-9.29v-29.61c0-18.57,3.54-33.55,10.63-44.92,1.25-2.03,2.63-3.94,4.11-5.73,9.83-11.87,23.72-17.81,41.68-17.81s31.88,5.98,41.74,17.92c8.53,10.32,13.37,24.34,14.52,42.04.19,2.78.28,5.65.28,8.61v29.51Z"/>
        </g>
        <path class="cls-2" d="m755.2,951.78c-9.91,0-19.76-.98-29.29-2.9l-.28-.05c-14.77-2.98-28.93-8.19-42.11-15.47-47.29-26.16-76.67-75.93-76.67-129.91,0-49.27,24.39-95.22,65.26-122.9,11.42-7.73,23.8-13.8,36.79-18.05,14.87-4.9,30.45-7.38,46.3-7.38,25.35,0,50.35,6.5,72.32,18.8,2.65,1.47,5.35,3.1,8.02,4.82,42.58,27.48,68,74.1,68,124.7,0,32.74-10.45,63.78-30.23,89.76-19.14,25.14-46.3,43.84-76.47,52.65-13.43,3.93-27.44,5.92-41.63,5.92Zm-28.67-8.89h0l.31.06c9.22,1.88,18.76,2.83,28.36,2.83,13.63,0,27.07-1.91,39.95-5.68,60.28-17.6,102.39-73.79,102.39-136.65,0-48.56-24.39-93.29-65.25-119.66-2.56-1.65-5.15-3.21-7.7-4.62-21.08-11.8-45.07-18.04-69.39-18.04-15.21,0-30.16,2.38-44.43,7.08-12.46,4.08-24.33,9.9-35.29,17.32-39.21,26.56-62.62,70.65-62.62,117.93,0,51.79,28.19,99.55,73.57,124.66,12.55,6.93,26.04,11.91,40.1,14.78Z"/>
        <path class="cls-2" d="m796.88,738.11c-9.87-11.95-23.79-17.92-41.75-17.92s-31.85,5.94-41.68,17.81c-9.83,11.87-14.75,28.76-14.75,50.64v29.61c0,21.75,4.93,38.59,14.8,50.54,9.86,11.95,23.82,17.92,41.85,17.92s31.74-5.94,41.57-17.81c9.83-11.87,14.75-28.76,14.75-50.64v-29.51c0-21.81-4.94-38.7-14.8-50.64Zm-22.71,85.83c-.07,11.65-1.63,20.21-4.67,25.65-3.05,5.46-7.76,8.18-14.14,8.18s-11.43-2.8-14.48-8.4c-3.04-5.6-4.56-14.45-4.56-26.55v-41.41c.22-10.83,1.8-18.91,4.73-24.26,2.93-5.34,7.62-8.01,14.07-8.01s11.43,2.88,14.48,8.63c3.04,5.75,4.56,14.45,4.56,26.1v40.07Z"/>
        <g class="cls-1">
          <path class="cls-2" d="m774.17,783.86v40.07c-.07,11.65-1.63,20.21-4.67,25.65-3.05,5.46-7.76,8.18-14.14,8.18s-11.43-2.8-14.48-8.4c-3.04-5.6-4.56-14.45-4.56-26.55v-41.41c.22-10.83,1.8-18.91,4.73-24.26,2.93-5.34,7.62-8.01,14.07-8.01s11.43,2.88,14.48,8.63c3.04,5.75,4.56,14.45,4.56,26.1Z"/>
        </g>
      </g>
    </g>
    <g>
      <path class="cls-2" d="m226.95,347.48c-.48,0-.98-.12-1.43-.37-7.12-3.87-13.58-9.25-19.2-15.99-1.06-1.27-.89-3.16.38-4.23,1.27-1.06,3.16-.89,4.23.38,5.13,6.15,11,11.05,17.45,14.56,1.46.79,1.99,2.61,1.2,4.07-.54,1-1.57,1.57-2.64,1.57Zm-30.47-35.86c-1.2,0-2.33-.72-2.79-1.9-3.16-8.05-4.89-16.25-5.13-24.38-.05-1.66,1.25-3.04,2.91-3.09,1.68-.04,3.04,1.25,3.09,2.91.22,7.33,1.85,15.06,4.72,22.36.61,1.54-.15,3.28-1.69,3.89-.36.14-.73.21-1.1.21Zm35.88-22.78c-1.34,0-2.56-.9-2.9-2.26-.41-1.61.56-3.24,2.16-3.65,1.57-.4,3.16-.9,4.72-1.49,4.28-1.61,9.98-4.64,12.84-9.92.79-1.46,2.61-2,4.07-1.21,1.46.79,2,2.61,1.21,4.07-3.74,6.92-10.77,10.72-16.01,12.69-1.76.66-3.56,1.23-5.35,1.69-.25.06-.5.09-.74.09Zm-23.68-.5c-.29,0-.59-.04-.88-.13-7.97-2.46-15.36-7.12-21.35-13.49-1.14-1.21-1.08-3.1.13-4.24,1.21-1.14,3.1-1.08,4.24.13,5.29,5.61,11.77,9.72,18.75,11.87,1.58.49,2.47,2.17,1.98,3.75-.4,1.29-1.58,2.12-2.87,2.12Zm-12.78-23.49c-.41,0-.82-.08-1.22-.26-1.51-.67-2.2-2.44-1.53-3.96,3.47-7.83,8.78-14.45,15.78-19.7,1.33-.99,3.21-.72,4.2.6.99,1.33.72,3.21-.6,4.2-6.17,4.62-10.85,10.46-13.9,17.33-.5,1.12-1.59,1.78-2.74,1.78Zm-19.4-9.7c-1.23,0-2.38-.76-2.82-1.99-2.8-7.81-4.37-16.01-4.65-24.39-.06-1.66,1.24-3.04,2.9-3.1,1.66-.05,3.04,1.24,3.1,2.9.27,7.76,1.71,15.35,4.3,22.57.56,1.56-.25,3.28-1.81,3.84-.33.12-.68.18-1.01.18Zm74.31-2.33c-1.12,0-2.19-.63-2.71-1.7-3.01-6.29-7.73-10.71-12.94-12.13-.84-.23-1.71-.39-2.6-.48-1.65-.17-2.85-1.64-2.69-3.28.16-1.65,1.64-2.86,3.28-2.69,1.22.12,2.43.34,3.58.66,6.99,1.9,12.94,7.35,16.77,15.32.72,1.49.09,3.29-1.41,4-.42.2-.86.3-1.29.3Zm-75.88-44.87c-.28,0-.56-.04-.83-.12-1.59-.46-2.51-2.12-2.05-3.72,1.29-4.47,3-8.81,5.06-12.88,1.65-3.26,3.6-6.46,5.8-9.52.97-1.35,2.84-1.65,4.19-.69,1.35.97,1.65,2.84.69,4.19-2.02,2.81-3.81,5.75-5.32,8.74-1.9,3.74-3.46,7.72-4.65,11.83-.38,1.31-1.58,2.17-2.88,2.17Zm27.04-38.68c-.88,0-1.75-.39-2.35-1.13-1.03-1.3-.82-3.18.47-4.22,5.94-4.74,12.86-9.23,20.57-13.35,1.46-.78,3.28-.23,4.06,1.23.78,1.46.23,3.28-1.23,4.06-7.38,3.95-14,8.23-19.65,12.75-.55.44-1.21.65-1.87.65Z"/>
      <path class="cls-2" d="m738.26,335.12c-1.04,0-2.06-.55-2.61-1.52-.82-1.44-.31-3.27,1.13-4.09.08-.05,8.53-4.86,19.81-13.09,1.34-.98,3.21-.68,4.19.65.98,1.34.68,3.22-.65,4.19-11.58,8.45-20.03,13.26-20.38,13.46-.47.27-.98.39-1.48.39Zm38.84-28.31c-.83,0-1.66-.34-2.25-1.01-1.1-1.24-.98-3.14.26-4.23,6.21-5.49,11.85-11.09,16.79-16.65,1.1-1.24,3-1.35,4.24-.25,1.24,1.1,1.35,3,.25,4.24-5.09,5.74-10.91,11.52-17.3,17.17-.57.5-1.28.75-1.99.75Zm31.44-36.1c-.53,0-1.08-.14-1.56-.44-1.41-.87-1.86-2.71-.99-4.13,4.35-7.1,7.55-14.19,9.51-21.07.45-1.59,2.11-2.52,3.71-2.06,1.59.45,2.52,2.11,2.06,3.71-2.11,7.41-5.53,15-10.16,22.56-.57.92-1.55,1.43-2.56,1.43Zm-7.22-3.12c-.08,0-.16,0-.24,0-9.15-.72-17.28-2.91-24.18-6.51-1.47-.77-2.04-2.58-1.27-4.05.77-1.47,2.58-2.04,4.05-1.27,6.17,3.22,13.53,5.19,21.87,5.85,1.65.13,2.89,1.58,2.75,3.23-.12,1.57-1.44,2.76-2.99,2.76Zm23.88-1.46c-1.41,0-2.67-1-2.94-2.44-.31-1.63.76-3.2,2.38-3.51,7.54-1.44,15.01-3.78,22.21-6.95,1.52-.67,3.29.02,3.96,1.54.67,1.52-.02,3.29-1.54,3.96-7.61,3.35-15.52,5.83-23.51,7.35-.19.04-.38.05-.57.05Zm43.57-19.17c-.92,0-1.82-.42-2.41-1.21-.99-1.33-.71-3.21.62-4.2,5.51-4.09,10.57-8.71,15.04-13.75.64-.72,1.27-1.45,1.89-2.18,1.07-1.27,2.96-1.43,4.23-.36,1.27,1.07,1.43,2.96.36,4.23-.65.77-1.32,1.54-1.99,2.31-4.75,5.34-10.12,10.25-15.95,14.58-.54.4-1.16.59-1.79.59Zm-107-2.31c-1.14,0-2.23-.65-2.73-1.76-2.29-5.01-3.44-10.62-3.44-16.68,0-2.94.22-5.81.65-8.54.26-1.64,1.8-2.75,3.43-2.49,1.64.26,2.75,1.8,2.49,3.43-.38,2.41-.58,4.97-.58,7.6,0,5.19.98,9.97,2.9,14.19.69,1.51.02,3.29-1.48,3.97-.4.18-.83.27-1.24.27Zm58.85-19.48c-1.53,0-2.83-1.16-2.98-2.71-.8-8.33-3.37-15.24-7.66-20.54-1.04-1.29-.84-3.18.45-4.22,1.29-1.04,3.18-.84,4.22.45,5.04,6.23,8.05,14.22,8.96,23.74.16,1.65-1.05,3.11-2.7,3.27-.1,0-.19.01-.29.01Zm78.8-14.57c-.45,0-.91-.1-1.35-.32-1.48-.74-2.08-2.55-1.33-4.03,3.57-7.09,6.14-14.43,7.65-21.84.33-1.62,1.92-2.67,3.54-2.34,1.62.33,2.67,1.91,2.34,3.54-1.61,7.92-4.36,15.78-8.17,23.34-.53,1.05-1.58,1.65-2.68,1.65Zm-129.66-10.5c-.8,0-1.6-.32-2.19-.95-1.13-1.21-1.07-3.11.14-4.24,6.07-5.68,13.91-8.81,22.09-8.81.7,0,1.4.02,2.1.07,1.65.11,2.9,1.54,2.79,3.19-.11,1.65-1.54,2.92-3.19,2.79-7.21-.48-14.31,2.1-19.69,7.13-.58.54-1.31.81-2.05.81Zm138.79-35.96c-1.51,0-2.81-1.14-2.98-2.68-.83-7.74-2.93-15.13-6.24-21.97-.72-1.49-.1-3.29,1.39-4.01,1.49-.72,3.29-.1,4.01,1.39,3.62,7.46,5.91,15.52,6.81,23.95.18,1.65-1.02,3.13-2.66,3.3-.11.01-.22.02-.32.02Zm-20.48-42.33c-.76,0-1.52-.29-2.11-.86-5.27-5.2-11.54-9.76-18.64-13.55-1.46-.78-2.01-2.6-1.23-4.06.78-1.46,2.6-2.01,4.06-1.23,7.6,4.07,14.34,8.97,20.02,14.57,1.18,1.16,1.19,3.06.03,4.24-.59.6-1.36.89-2.14.89Zm-41.59-22.86c-.27,0-.54-.04-.81-.11-4.44-1.24-9.14-2.29-13.97-3.11-1.63-.28-2.73-1.83-2.45-3.46.28-1.63,1.82-2.73,3.46-2.45,5.04.86,9.94,1.95,14.58,3.25,1.6.45,2.53,2.1,2.08,3.7-.37,1.33-1.58,2.19-2.89,2.19Z"/>
    </g>
    <g>
      <g class="cls-1">
        <ellipse class="cls-2" cx="767.86" cy="39.88" rx="41.34" ry="19.68" transform="translate(498.95 760.22) rotate(-72.5)"/>
      </g>
      <g class="cls-1">
        <path class="cls-2" d="m783.83,102.57c-4.29,0-8.68-.47-13.05-1.41-10.71-2.29-20.19-7.11-26.72-13.55-6.47-6.39-9.23-13.6-7.79-20.33,2.33-10.87,15.31-18.17,32.31-18.17,4.29,0,8.68.47,13.05,1.41,10.71,2.29,20.2,7.11,26.72,13.55,6.46,6.39,9.23,13.6,7.79,20.32-2.33,10.87-15.31,18.17-32.31,18.17Z"/>
        <path class="cls-2" d="m768.58,48.61v1h0c4.26,0,8.61.47,12.95,1.4,21.75,4.66,37.06,19.59,34.13,33.28-2.28,10.63-15.07,17.78-31.82,17.78-4.26,0-8.61-.47-12.95-1.4-10.61-2.27-20.02-7.04-26.47-13.42-6.34-6.26-9.06-13.32-7.65-19.86,2.28-10.63,15.07-17.78,31.82-17.78v-1m0,0c-16.75,0-30.36,7.19-32.8,18.57-3.05,14.25,12.57,29.69,34.9,34.47,4.5.96,8.93,1.42,13.16,1.42,16.75,0,30.36-7.19,32.8-18.57,3.05-14.25-12.57-29.69-34.9-34.47-4.5-.96-8.93-1.42-13.16-1.42h0Z"/>
      </g>
      <ellipse class="cls-2" cx="776.2" cy="75.84" rx="26.39" ry="41.34" transform="translate(539.41 818.92) rotate(-77.91)"/>
      <g class="cls-1">
        <ellipse class="cls-2" cx="783.11" cy="53.52" rx="41.34" ry="19.68" transform="translate(136.65 498.74) rotate(-38.47)"/>
      </g>
    </g>
    <g>
      <path class="cls-2" d="m580.27,883.27h-269.17c-1.66,0-3-1.34-3-3s1.34-3,3-3h269.17c1.66,0,3,1.34,3,3s-1.34,3-3,3Z"/>
      <path class="cls-2" d="m580.27,904.81h-120.88c-1.66,0-3-1.34-3-3s1.34-3,3-3h120.88c1.66,0,3,1.34,3,3s-1.34,3-3,3Z"/>
      <path class="cls-2" d="m559.03,440.14h-130.97c-1.66,0-3-1.34-3-3s1.34-3,3-3h130.97c1.66,0,3,1.34,3,3s-1.34,3-3,3Z"/>
      <path class="cls-2" d="m493.54,477.84h-65.49c-1.66,0-3-1.34-3-3s1.34-3,3-3h65.49c1.66,0,3,1.34,3,3s-1.34,3-3,3Z"/>
      <path class="cls-2" d="m811.69,504.5h-43.51c-1.66,0-3-1.34-3-3s1.34-3,3-3h43.51c1.66,0,3,1.34,3,3s-1.34,3-3,3Z"/>
      <path class="cls-2" d="m346.33,395.19c-.37,0-.74-.07-1.11-.21-1.54-.61-2.29-2.35-1.68-3.9l92.5-233.1c.61-1.54,2.35-2.29,3.9-1.68,1.54.61,2.29,2.35,1.68,3.9l-92.5,233.1c-.47,1.18-1.6,1.89-2.79,1.89Z"/>
      <path class="cls-2" d="m626.48,356.66c-1.2,0-2.34-.73-2.8-1.92l-39.67-102.33c-.6-1.54.17-3.28,1.71-3.88,1.54-.6,3.28.17,3.88,1.71l39.67,102.33c.6,1.54-.17,3.28-1.71,3.88-.36.14-.72.2-1.08.2Z"/>
      <path class="cls-2" d="m261.68,574.49h-79.17c-1.66,0-3-1.34-3-3s1.34-3,3-3h79.17c1.66,0,3,1.34,3,3s-1.34,3-3,3Z"/>
    </g>
  </g>
</svg>