<?xml version="1.0" encoding="UTF-8"?>
<svg id="Layer_2" data-name="Layer 2" xmlns="http://www.w3.org/2000/svg" viewBox="0 0 1000 1000">
  <defs>
    <style>
      .cls-1, .cls-2 {
        opacity: .5;
      }

      .cls-3, .cls-4, .cls-2 {
        fill: #ccd2d6;
        stroke-width: 0px;
      }

      .cls-4, .cls-5 {
        opacity: .75;
      }

      .cls-6 {
        opacity: .25;
      }
    </style>
  </defs>
  <g class="cls-6">
    <path class="cls-3" d="m823.64,51.71H89.65c-24.74,0-47.16,10.03-63.39,26.26C10.03,94.19,0,116.61,0,141.37c0,49.51,40.14,89.66,89.65,89.66h134.08c20.88,0,40.08,7.13,55.32,19.1,56.7-22.14,117.46-36.17,180.86-40.65,8.9-.63,17.09,4.89,19.79,13.39l3,9.41c1.69,5.33,1,11.13-1.91,15.9l-24.45,40.11,35.72,29.17,31.27,25.55-48.16,102.73-18.83,40.2,54.51-41.24,110.76-83.82-19.01-34.09-16.98-30.48c-3.82-6.86-3.03-15.35,2-21.37l38.85-46.66c3.67-4.41,9.5-6.41,15.11-5.13,17.46,3.94,34.63,8.63,51.49,14.01,10.1-3.96,21.1-6.12,32.6-6.12h97.98c24.76,0,47.18-10.03,63.4-26.27,16.23-16.22,26.26-38.64,26.26-63.39,0-49.52-40.13-89.66-89.66-89.66Zm-378.83,132.47l-38.73-27.65,36.85-26.8,11.79,47.73c1.42,5.76-5.09,10.17-9.91,6.72Zm107.47-56.06l-35.57,104.19c-1.95,5.7-9.99,5.78-12.04.11l-37.7-104.19c-1.51-4.16,1.57-8.56,6-8.56h73.27c4.37,0,7.46,4.31,6.04,8.44Zm84.83,61.25l-47.13,24.14c-5.56,2.85-11.48-3.16-8.55-8.67l22.24-41.88c1.81-3.4,6.2-4.44,9.34-2.2l24.89,17.73c3.89,2.78,3.46,8.7-.79,10.88Z"/>
    <path class="cls-3" d="m859.12,768.96h-26.72c-25.59,0-48.68-10.72-65.01-27.91-18.15,13.45-40.61,21.4-64.93,21.4-36.2,0-68.31-17.61-88.17-44.76l-44.93,44.93c6.33,11.38,9.92,24.48,9.92,38.4,0,43.79-35.5,79.3-79.29,79.3s-79.28-35.51-79.28-79.3c0-15.47,4.43-29.91,12.1-42.11l-.13-.11-101.46-97.48-103.08-99.01-91.81-88.2-64.54-61.99c-17.59,3.54-33.33,12.25-45.55,24.48C10.03,452.83,0,475.24,0,500c0,49.5,40.13,89.66,89.65,89.66h51.51c49.51,0,89.67,40.14,89.67,89.65,0,7.5-.92,14.78-2.66,21.74l124.05,46.2c7.2,2.68,6.2,13.16-1.37,14.44l-189.63,32.07c-5.13.88-9.57-3.62-8.65-8.74l3.12-17.22c-4.73.77-9.57,1.17-14.52,1.17h-44.61c-24.76,0-47.18,10.03-63.4,26.27-16.24,16.22-26.27,38.64-26.27,63.4,0,49.5,40.15,89.66,89.67,89.66h762.57c24.74,0,47.17-10.03,63.39-26.27,16.24-16.22,26.27-38.65,26.27-63.39,0-49.52-40.15-89.67-89.66-89.67Zm-567.99-77.7l-45.85-26.13c-3.67-2.09-4.89-6.79-2.71-10.41l10.58-17.51c2.69-4.46,8.99-4.89,12.27-.85l35.26,43.65c5.22,6.45-2.35,15.35-9.56,11.25Z"/>
    <path class="cls-3" d="m921.02,410.97l-55.81,55.82h-.01l-90.01,90.02h-.01l-8.25,8.25c11.8,8.64,21.8,19.58,29.34,32.18,11.05-4.88,23.27-7.59,36.14-7.59h77.95c24.75,0,47.16-10.03,63.39-26.27,16.23-16.22,26.26-38.63,26.26-63.39,0-45.92-34.5-83.76-78.98-89.03Zm-9.38,156.88l-61.58-3.94c-7.44-.47-9.72-10.33-3.23-14.02l50.51-28.74c4.09-2.33,9.31-.36,10.83,4.12l11.07,32.69c1.71,5.06-2.26,10.25-7.6,9.9Z"/>
    <path class="cls-3" d="m243.5,265.3c-37.6,17.47-73.15,38.59-106.19,62.93-.17-1.95-.25-3.91-.25-5.9,0-37.83,30.67-68.5,68.5-68.5,14.04,0,27.08,4.23,37.94,11.47Z"/>
    <path class="cls-3" d="m915.6,677.24c0,37.83-30.67,68.49-68.49,68.49-23.06,0-43.46-11.4-55.87-28.86,9.43-13.14,16.02-28.47,18.86-45.07,1.04-6.03,1.58-12.23,1.58-18.57,0-10.97-1.62-21.56-4.63-31.56,11.27-8.14,25.1-12.94,40.06-12.94,37.82,0,68.49,30.67,68.49,68.5Z"/>
    <path class="cls-3" d="m892.21,322.34c0,6.82-1,13.41-2.85,19.63-45.4-36.05-95.98-65.85-150.44-88.13h84.8c37.83,0,68.49,30.67,68.49,68.5Z"/>
    <path class="cls-3" d="m196.9,678.7c0,3.53-.26,7.01-.79,10.4l-16.1-6c-4.38-1.64-9.18,1.09-10,5.69l-9.11,50.22c-9.67,5.23-20.73,8.19-32.48,8.19h-11.21c-37.83,0-68.5-30.67-68.5-68.5s30.67-68.5,68.5-68.5h11.21c37.83,0,68.49,30.67,68.49,68.5Z"/>
  </g>
  <g>
    <g>
      <path class="cls-2" d="m492.06,317.47c-139.7,3.3-265.51,62.75-355.73,156.65l-67.6-64.95c-6.29-6.04-6.34-16.05-.15-22.17,102.08-101,239.12-166.76,391.33-177.53,8.9-.63,17.09,4.89,19.79,13.39l3.01,9.41c1.69,5.32,1,11.13-1.91,15.9l-24.45,40.12,35.72,29.17Z"/>
      <path class="cls-2" d="m931.49,400.5l-66.28,66.29h-.01c-70.33-70.33-161.07-120.22-262.59-140.01l-16.98-30.47c-3.83-6.86-3.03-15.35,1.99-21.38l38.85-46.66c3.67-4.42,9.51-6.41,15.11-5.14,110.71,25.03,210.17,79.68,289.63,155.19,6.31,6,6.44,16.02.28,22.17Z"/>
      <path class="cls-4" d="m523.33,343.01l-48.15,102.73c-96.85,7.28-183.65,50.6-247.03,116.58l-91.81-88.19c90.22-93.9,216.02-153.35,355.73-156.65l31.27,25.54Z"/>
      <path class="cls-4" d="m865.2,466.8l-90.01,90.02h-.01c-67.89-67.89-161.16-110.41-264.33-112.12l110.76-83.82-19-34.09c101.52,19.79,192.26,69.68,262.59,140.01Z"/>
      <path class="cls-2" d="m775.18,556.82l-8.26,8.26c-18.06-13.25-40.35-21.06-64.46-21.06-44.43,0-82.65,26.52-99.73,64.59-30.03-13.51-63.33-21.04-98.39-21.04-68.03,0-129.45,28.3-173.13,73.76l-103.08-99.01c63.38-65.98,150.18-109.3,247.03-116.58l-18.84,40.2,54.51-41.24c103.17,1.71,196.44,44.23,264.33,112.12Z"/>
      <path class="cls-4" d="m614.3,717.7l-44.93,44.93c-13.51-24.38-39.5-40.88-69.37-40.88-28.32,0-53.16,14.85-67.18,37.18l-.13-.12-101.47-97.48c43.68-45.46,105.1-73.76,173.13-73.76,35.05,0,68.36,7.52,98.39,21.04-6.1,13.62-9.5,28.73-9.5,44.63,0,6.33.54,12.53,1.57,18.57,2.9,16.96,9.72,32.58,19.48,45.9Z"/>
      <path class="cls-3" d="m136.42,478.36l-69.77-67.03c-3.62-3.48-5.64-8.16-5.68-13.18-.04-5.03,1.91-9.75,5.49-13.29,51.89-51.33,111.68-92.78,177.72-123.19,68.02-31.32,140.53-49.89,215.51-55.19,10.34-.73,19.74,5.63,22.86,15.48l3,9.41c1.96,6.16,1.16,12.86-2.21,18.37l-23.09,37.88,39.98,32.65-8.11.19c-134.62,3.18-260.21,58.49-353.64,155.73l-2.08,2.16ZM461.31,212.42c-.39,0-.79.01-1.19.04-146.46,10.36-284.76,73.1-389.43,176.67-2.42,2.39-3.74,5.58-3.71,8.98.03,3.39,1.39,6.55,3.83,8.9l65.45,62.88c45.54-46.87,98.74-84.14,158.16-110.8,59.91-26.89,123.64-41.8,189.54-44.36l-31.54-25.75,25.81-42.35c2.46-4.03,3.05-8.93,1.62-13.43l-3.01-9.41c-2.17-6.82-8.45-11.36-15.53-11.36Z"/>
      <path class="cls-3" d="m866.45,469.8h-2.49l-.89-.88c-71.75-71.75-162.02-119.88-261.04-139.19l-1.37-.27-17.66-31.69c-4.39-7.87-3.47-17.82,2.31-24.76l38.85-46.65c4.42-5.32,11.35-7.67,18.08-6.15,108.97,24.64,209.61,78.56,291.04,155.94,3.65,3.47,5.69,8.15,5.75,13.18.06,5.02-1.86,9.74-5.41,13.29l-67.16,67.17Zm-1.24-3h0,0Zm-260.66-142.69c98.69,19.52,188.73,67.35,260.65,138.46l64.17-64.18c2.4-2.4,3.7-5.59,3.65-8.98-.04-3.4-1.42-6.56-3.88-8.9-80.64-76.63-180.31-130.04-288.23-154.43-4.52-1.02-9.17.56-12.14,4.13l-38.85,46.66c-4.2,5.04-4.87,12.27-1.68,17.99l16.3,29.26Z"/>
      <path class="cls-3" d="m228.23,566.56l-96.14-92.35,2.08-2.16c46-47.88,99.92-85.89,160.24-112.96,62.34-27.98,128.82-42.99,197.58-44.61l1.11-.03,33.94,27.72-49.89,106.43-1.75.13c-93.12,7-180.16,48.08-245.09,115.67l-2.08,2.16Zm-87.65-92.51l87.49,84.04c65.32-66.95,152.19-107.79,245.14-115.2l46.42-99.02-28.6-23.36c-133.2,3.43-257.5,57.91-350.44,153.55Z"/>
      <path class="cls-3" d="m776.43,559.82h-2.49l-.89-.88c-70.1-70.1-163.24-109.6-262.26-111.24l-8.7-.14,115.62-87.49-20.88-37.45,6.34,1.24c100.2,19.53,191.54,68.23,264.14,140.83l2.12,2.12-93.01,93.02Zm-256.96-117.88c96.39,3.7,186.79,42.77,255.7,110.65l85.77-85.78c-69.86-69.05-157-115.89-252.55-135.79l17.1,30.68-106.03,80.24Z"/>
      <path class="cls-3" d="m331.31,665.57l-107.4-103.16,2.08-2.16c65.96-68.65,154.38-110.38,248.97-117.49l5.12-.38-15.87,33.87,45.66-34.55,1.04.02c100.59,1.66,195.2,41.79,266.4,113l2.12,2.12-12.2,12.2-2.08-1.52c-18.26-13.4-39.94-20.48-62.68-20.48-41.8,0-79.88,24.66-96.99,62.82l-1.23,2.74-2.74-1.23c-30.62-13.78-63.31-20.77-97.15-20.77-65.12,0-125.84,25.87-170.97,72.84l-2.08,2.16Zm-98.91-103.33l98.75,94.86c21.99-22.34,47.65-39.98,76.31-52.45,30.62-13.32,63.22-20.08,96.89-20.08s66.29,6.76,96.91,20.1c18.64-38.77,58.04-63.65,101.21-63.65,23.17,0,45.28,6.95,64.13,20.14l4.33-4.33c-69.6-68.54-161.46-107.23-259.1-109.11l-63.35,47.94,21.79-46.5c-90.19,8.01-174.37,48.02-237.87,113.09Z"/>
      <path class="cls-3" d="m568.67,767.56l-1.93-3.48c-13.45-24.26-39.02-39.34-66.74-39.34s-50.58,13.37-64.64,35.77l-1.92,3.06-2.79-2.58-103.67-99.59,2.08-2.16c22.45-23.36,48.82-41.73,78.4-54.6,30.62-13.32,63.22-20.08,96.89-20.08s68.21,7.17,99.62,21.3l2.73,1.23-1.22,2.73c-6.13,13.69-9.24,28.29-9.24,43.41,0,6.08.51,12.15,1.53,18.06,2.74,16.03,9.29,31.46,18.95,44.64l1.52,2.08-49.56,49.56Zm-68.67-48.82c28.58,0,55.04,14.85,69.99,39.01l40.38-40.38c-9.38-13.45-15.77-28.98-18.52-45.07-1.07-6.24-1.62-12.65-1.62-19.07,0-14.95,2.88-29.43,8.57-43.09-29.84-12.99-61.6-19.58-94.45-19.58-64.12,0-123.97,25.08-168.88,70.69l96.82,93.01c15.4-22.31,40.44-35.52,67.7-35.52Z"/>
      <path class="cls-2" d="m579.28,801.03c0,43.79-35.49,79.29-79.28,79.29s-79.28-35.5-79.28-79.29c0-15.47,4.44-29.9,12.1-42.11,14.02-22.33,38.86-37.18,67.18-37.18,29.86,0,55.85,16.5,69.37,40.88,6.32,11.37,9.92,24.47,9.92,38.4Z"/>
      <path class="cls-3" d="m500,883.32c-45.37,0-82.28-36.92-82.28-82.29,0-15.5,4.34-30.62,12.56-43.7,15.17-24.16,41.23-38.58,69.72-38.58,29.9,0,57.48,16.26,71.99,42.43,6.73,12.11,10.29,25.9,10.29,39.85,0,45.38-36.91,82.29-82.28,82.29Zm0-158.58c-26.41,0-50.58,13.37-64.64,35.77-7.62,12.13-11.64,26.14-11.64,40.51,0,42.07,34.22,76.29,76.28,76.29s76.28-34.23,76.28-76.29c0-12.94-3.3-25.71-9.54-36.94-13.45-24.27-39.02-39.34-66.74-39.34Z"/>
    </g>
    <g>
      <path class="cls-2" d="m766.92,565.07c-18.06-13.25-40.35-21.06-64.46-21.06-44.43,0-82.65,26.52-99.73,64.59-6.1,13.62-9.5,28.73-9.5,44.63,0,6.33.54,12.53,1.57,18.57,2.9,16.96,9.72,32.58,19.48,45.9,19.87,27.14,51.97,44.75,88.17,44.75,53.98,0,98.82-39.18,107.63-90.65,1.04-6.04,1.57-12.24,1.57-18.57,0-36.21-17.62-68.31-44.75-88.16Zm-18.3,124.79l-9.53,9.53c-3.18,3.18-8.33,3.18-11.5,0l-25.12-25.12-25.14,25.12c-3.17,3.18-8.32,3.18-11.5,0l-9.53-9.53c-3.19-3.18-3.19-8.33,0-11.51l25.12-25.12-1.32-1.32-23.79-23.8c-3.18-3.17-3.19-8.31,0-11.5l9.53-9.53c3.18-3.18,8.33-3.18,11.5,0l23.81,23.79,1.32,1.32,25.12-25.12c3.17-3.18,8.32-3.18,11.5,0l9.53,9.53c3.19,3.19,3.18,8.33,0,11.5l-25.12,25.13,18.57,18.57,6.55,6.55c3.19,3.18,3.19,8.33,0,11.51Z"/>
      <g>
        <path class="cls-3" d="m702.47,765.45c-35.65,0-69.52-17.19-90.59-45.98-10.2-13.92-17.13-30.23-20.02-47.17-1.07-6.24-1.62-12.65-1.62-19.07,0-15.96,3.29-31.39,9.76-45.86,18.08-40.31,58.3-66.36,102.47-66.36,24.03,0,46.93,7.48,66.23,21.64,28.79,21.07,45.98,54.93,45.98,90.58,0,6.42-.54,12.83-1.62,19.07-4.41,25.77-17.87,49.36-37.89,66.41-20.25,17.24-46.07,26.74-72.7,26.74Zm0-218.44c-41.8,0-79.88,24.66-96.99,62.82-6.13,13.69-9.24,28.29-9.24,43.41,0,6.08.51,12.15,1.53,18.06,2.74,16.03,9.29,31.46,18.95,44.64,19.95,27.25,52.01,43.53,85.75,43.53,51.91,0,95.93-37.08,104.68-88.16,1.02-5.91,1.53-11.98,1.53-18.06,0-33.75-16.27-65.8-43.52-85.74h0c-18.26-13.4-39.94-20.48-62.68-20.48Z"/>
        <path class="cls-3" d="m733.33,704.78h-.01c-2.97,0-5.76-1.16-7.86-3.27l-22.99-22.99-23.02,23c-2.09,2.1-4.88,3.26-7.86,3.26h-.01c-2.97,0-5.77-1.16-7.88-3.26l-9.53-9.54c-2.11-2.1-3.27-4.9-3.27-7.88s1.16-5.78,3.28-7.88l22.99-22.99-23-23.01c-2.1-2.1-3.27-4.89-3.27-7.86,0-2.97,1.16-5.77,3.27-7.88l9.53-9.53c2.11-2.11,4.9-3.27,7.88-3.27h.01c2.97,0,5.76,1.16,7.86,3.27l23.01,22.99,23-22.99c2.09-2.1,4.89-3.26,7.86-3.27h.01c2.97,0,5.77,1.16,7.88,3.26l9.53,9.54c2.11,2.11,3.27,4.91,3.27,7.89,0,2.97-1.17,5.76-3.27,7.86l-22.99,23,22.99,23c2.11,2.1,3.27,4.9,3.27,7.88s-1.16,5.78-3.28,7.88l-9.53,9.53c-2.11,2.11-4.9,3.26-7.88,3.26Zm-30.86-34.74l27.24,27.24c.97.97,2.25,1.51,3.62,1.51h0c1.37,0,2.66-.54,3.63-1.51l9.54-9.54c.98-.97,1.51-2.26,1.51-3.63s-.54-2.66-1.51-3.63l-27.24-27.24,27.24-27.25c.98-.97,1.51-2.26,1.51-3.62,0-1.37-.54-2.66-1.51-3.64l-9.53-9.53c-.97-.97-2.26-1.51-3.63-1.51h0c-1.37,0-2.65.54-3.62,1.5l-27.24,27.24-27.26-27.24c-.97-.97-2.25-1.51-3.62-1.51h0c-1.37,0-2.66.54-3.63,1.51l-9.53,9.53c-.98.98-1.51,2.27-1.51,3.64,0,1.37.54,2.65,1.51,3.62l27.24,27.25-27.24,27.24c-.98.98-1.52,2.27-1.52,3.64s.54,2.66,1.51,3.63l9.54,9.54c.97.97,2.26,1.51,3.63,1.51h0c1.37,0,2.65-.54,3.62-1.5l27.26-27.24Z"/>
      </g>
      <path class="cls-4" d="m748.62,689.86l-9.53,9.53c-3.18,3.18-8.34,3.18-11.51,0l-25.12-25.12-25.13,25.12c-3.17,3.18-8.33,3.18-11.51,0l-9.53-9.53c-3.19-3.18-3.19-8.34,0-11.52l25.12-25.11-25.12-25.13c-3.18-3.17-3.19-8.32,0-11.51l9.53-9.53c3.18-3.18,8.34-3.18,11.51,0l25.13,25.12,25.12-25.12c3.17-3.18,8.33-3.18,11.51,0l9.53,9.53c3.19,3.19,3.18,8.34,0,11.51l-25.12,25.13,25.12,25.11c3.19,3.18,3.19,8.34,0,11.52Z"/>
    </g>
    <g class="cls-1">
      <path class="cls-3" d="m504.67,232.42l-37.7-104.19c-1.51-4.16,1.58-8.55,6-8.55h73.27c4.38,0,7.45,4.3,6.04,8.44l-35.57,104.19c-1.95,5.71-9.99,5.78-12.04.11Z"/>
      <path class="cls-3" d="m581.44,204.84l22.24-41.88c1.81-3.41,6.2-4.44,9.34-2.2l24.89,17.74c3.9,2.78,3.46,8.7-.79,10.88l-47.13,24.14c-5.56,2.85-11.48-3.16-8.55-8.67Z"/>
      <path class="cls-3" d="m444.81,184.19l-38.72-27.66,36.85-26.8,11.78,47.74c1.42,5.75-5.08,10.17-9.91,6.72Z"/>
    </g>
    <g class="cls-5">
      <path class="cls-3" d="m352.21,747.24l-172.21-64.14c-4.38-1.63-9.18,1.1-10.01,5.7l-17.43,96.21c-.93,5.12,3.51,9.61,8.64,8.74l189.64-32.07c7.57-1.28,8.57-11.76,1.37-14.44Z"/>
      <path class="cls-3" d="m291.13,691.26l-45.84-26.12c-3.67-2.09-4.89-6.79-2.71-10.41l10.58-17.52c2.69-4.46,9-4.89,12.27-.84l35.26,43.64c5.22,6.46-2.35,15.36-9.56,11.25Z"/>
      <path class="cls-3" d="m846.82,549.9l50.51-28.74c4.1-2.33,9.31-.35,10.83,4.12l11.07,32.68c1.71,5.06-2.26,10.25-7.59,9.91l-61.58-3.94c-7.44-.48-9.72-10.34-3.23-14.02Z"/>
    </g>
    <g>
      <path class="cls-3" d="m510.67,239.63c-4,0-7.45-2.42-8.82-6.19l-37.7-104.19c-1.04-2.87-.61-6.08,1.14-8.58,1.75-2.5,4.63-3.99,7.68-3.99h73.27c3.02,0,5.87,1.47,7.63,3.92,1.76,2.46,2.22,5.63,1.25,8.49l-35.57,104.19c-1.3,3.82-4.76,6.31-8.79,6.35-.03,0-.06,0-.09,0Zm-37.69-116.95c-1.12,0-2.13.52-2.77,1.44-.64.92-.79,2.04-.41,3.09l37.7,104.19c.76,2.09,2.68,2.22,3.21,2.23.56,0,2.45-.19,3.17-2.29l35.57-104.19c.36-1.05.19-2.16-.45-3.06-.64-.9-1.65-1.41-2.75-1.41h-73.27Z"/>
      <path class="cls-3" d="m587.02,217.25c-2.43,0-4.79-.97-6.63-2.83-2.94-2.98-3.57-7.29-1.6-10.99h0s22.24-41.88,22.24-41.88c1.27-2.39,3.5-4.11,6.13-4.73,2.63-.62,5.4-.08,7.6,1.49l24.89,17.74c2.69,1.92,4.15,5.03,3.91,8.32-.24,3.29-2.14,6.16-5.08,7.67l-47.13,24.14c-1.4.72-2.88,1.06-4.33,1.06Zm-2.93-11c-1.08,2.03.17,3.55.58,3.96.41.42,1.9,1.69,3.95.64l47.13-24.14c1.08-.55,1.74-1.56,1.83-2.76.09-1.21-.43-2.3-1.41-3l-24.89-17.74c-.8-.57-1.78-.77-2.74-.54-.96.23-1.75.83-2.21,1.71l-22.24,41.88h0Z"/>
      <path class="cls-3" d="m448.52,188.39c-1.9,0-3.8-.59-5.45-1.77l-42.11-30.08,43.83-31.87,12.85,52.07c.95,3.85-.56,7.78-3.84,10.01-1.61,1.09-3.44,1.64-5.27,1.64Zm-1.96-6.65c1.78,1.27,3.41.36,3.87.05.46-.31,1.91-1.49,1.38-3.61l-10.71-43.41-29.88,21.73,35.34,25.24Z"/>
    </g>
    <g>
      <path class="cls-3" d="m159.95,796.86c-2.79,0-5.49-1.11-7.48-3.12-2.41-2.43-3.48-5.9-2.87-9.26l17.43-96.21c.56-3.07,2.43-5.72,5.14-7.26,2.71-1.54,5.95-1.8,8.87-.72l172.21,64.14c4.52,1.68,7.25,6.04,6.8,10.84-.46,4.8-3.96,8.57-8.71,9.37l-189.64,32.07c-.58.1-1.17.15-1.75.15Zm17.43-111.24c-.77,0-1.54.2-2.23.59-1.16.66-1.97,1.8-2.21,3.12l-17.43,96.21c-.27,1.47.18,2.92,1.23,3.98,1.05,1.06,2.49,1.52,3.96,1.28l189.64-32.07c2.52-.43,3.58-2.36,3.74-4.02.16-1.67-.53-3.76-2.92-4.65l-172.21-64.14c-.51-.19-1.04-.29-1.58-.29Z"/>
      <path class="cls-3" d="m294.95,695.31c-1.78,0-3.6-.47-5.3-1.45l-45.84-26.12c-2.48-1.42-4.25-3.72-4.97-6.48-.72-2.77-.3-5.64,1.17-8.08l10.58-17.52c1.77-2.93,4.87-4.82,8.28-5.05,3.41-.24,6.74,1.22,8.89,3.88l35.26,43.64c3.28,4.05,3.21,9.44-.17,13.41-2.1,2.47-4.96,3.77-7.91,3.77Zm-35.35-58.73c-.11,0-.21,0-.32.01-1.49.1-2.78.89-3.55,2.17l-10.58,17.52c-.63,1.05-.81,2.28-.5,3.47.31,1.19,1.07,2.18,2.13,2.78l45.84,26.12c2.4,1.36,4.5.38,5.67-1,1.17-1.38,1.8-3.61.07-5.76l-35.26-43.64c-.87-1.08-2.13-1.68-3.5-1.68Z"/>
      <path class="cls-3" d="m912.12,570.88c-.22,0-.45,0-.68-.02l-61.58-3.94c-4.75-.3-8.5-3.49-9.57-8.13-1.07-4.63.91-9.15,5.04-11.5l50.51-28.74c2.74-1.56,5.99-1.81,8.93-.69,2.94,1.12,5.21,3.47,6.22,6.45l11.07,32.68c1.13,3.33.52,6.98-1.61,9.77-2,2.61-5.08,4.12-8.34,4.12Zm-63.82-18.37c-2.15,1.22-2.53,3.35-2.16,4.94.37,1.58,1.64,3.33,4.11,3.49l61.58,3.94c1.55.1,2.94-.54,3.87-1.76s1.18-2.74.69-4.19l-11.07-32.68c-.43-1.28-1.41-2.29-2.67-2.77s-2.66-.37-3.83.3l-50.51,28.74Z"/>
    </g>
  </g>
</svg>