<?xml version="1.0" encoding="utf-8"?>
<!-- Generator: Adobe Illustrator 24.2.0, SVG Export Plug-In . SVG Version: 6.00 Build 0)  -->
<svg version="1.1" id="Layer_1" xmlns="http://www.w3.org/2000/svg" xmlns:xlink="http://www.w3.org/1999/xlink" x="0px" y="0px"
	 viewBox="0 0 30 30" style="enable-background:new 0 0 30 30;" xml:space="preserve">
<style type="text/css">
	.st0{fill:none;}
	.st1{fill:#011839;}
	.st2{fill:#5059CD;}
</style>
<g>
	<rect x="3" y="9.1" class="st0" width="3" height="3"/>
	<rect x="3" y="15.1" class="st0" width="3" height="3"/>
	<rect x="3" y="3.1" class="st0" width="3" height="3"/>
	<rect x="3" y="21.1" class="st0" width="3" height="3"/>
	<rect x="9" y="15.1" class="st0" width="3" height="3"/>
	<rect x="9" y="3.1" class="st0" width="3" height="3"/>
	<rect x="9" y="21.1" class="st0" width="3" height="3"/>
	<rect x="9" y="9.1" class="st0" width="3" height="3"/>
	<path class="st1" d="M30,6.1H15v-6H0v27h17.7l-1.9-1.9l0.9-1c0,0,0.1,0,0.1-0.1H15v-3h3v-3h-3v-3h3v-3h-3v-3h12v12.8l1.3,0.7
		c0.6,0.2,1.1,0.9,1,1.6v0.2L29,27.1h1V6.1z M6,24.1H3v-3h3V24.1z M6,18.1H3v-3h3V18.1z M6,12.1H3v-3h3V12.1z M6,6.1H3v-3h3V6.1z
		 M12,24.1H9v-3h3V24.1z M12,18.1H9v-3h3V18.1z M12,12.1H9v-3h3V12.1z M12,6.1H9v-3h3V6.1z"/>
	<path class="st1" d="M24,15.1v-3h-3v3H24z"/>
	<path class="st2" d="M28.9,24.1v0.1l-0.4,3L28.2,29c0,0.2-0.1,0.4-0.4,0.6c-0.2,0.2-0.4,0.2-0.6,0.2h-5.4c-0.3,0-0.5-0.1-0.7-0.3
		l-2.4-2.4l-2-2l0.5-0.5c0.1-0.1,0.3-0.2,0.5-0.2h0.2l3.6,0.8v-8.7c0-0.7,0.5-1.2,1.2-1.2s1.2,0.5,1.2,1.2v4.9h0.9l0.4,0.1l2.2,1.1
		l1.1,0.5C28.7,23.3,28.9,23.7,28.9,24.1z"/>
</g>
</svg>
