<?xml version="1.0" encoding="utf-8"?>
<!-- Generator: Adobe Illustrator 24.2.0, SVG Export Plug-In . SVG Version: 6.00 Build 0)  -->
<svg version="1.1" id="Layer_1" xmlns="http://www.w3.org/2000/svg" xmlns:xlink="http://www.w3.org/1999/xlink" x="0px" y="0px"
	 viewBox="0 0 30 30" style="enable-background:new 0 0 30 30;" xml:space="preserve">
<style type="text/css">
	.st0{fill:#5059CD;}
	.st1{fill:#011839;}
</style>
<g>
	<path class="st0" d="M12.5,0.5c0.6,0.1,1.1,0.1,1.7,0.3c6.4,1.6,10,8.2,7.9,14.5c-2.3,6.5-10.1,9.4-16,6.1
		c-0.2-0.1-0.4-0.1-0.6-0.1c-1.3,0.4-2.5,0.7-3.7,1.1c-0.5,0.1-0.9,0.3-1.4,0.4c0-0.1,0-0.1,0-0.2c0.5-1.7,0.9-3.3,1.4-5
		c0-0.1,0-0.4,0-0.5c-1.3-2.4-1.7-4.8-1.3-7.4c0.7-4.4,4.1-8.1,8.4-9C9.5,0.6,10.9,0.3,12.5,0.5z M12.3,14.1c0-0.4,0-0.7,0-1.1
		c0-0.1,0.1-0.3,0.2-0.4c0.5-0.4,1-0.9,1.4-1.3c1.4-1.4,1.4-3.6-0.1-4.9c-1.5-1.4-3.6-1.2-4.9,0.3C8.3,7.3,8,8.1,8,8.9
		c0.6,0,1.1,0,1.7,0c0-0.1,0-0.2,0-0.3c0.2-0.7,0.9-1.4,1.7-1.4c0.7,0,1.4,0.4,1.7,1c0.3,0.7,0.2,1.4-0.4,1.9
		c-0.5,0.5-1.1,1-1.7,1.5c-0.4,0.3-0.5,0.6-0.5,1.1c0,0.5,0,1,0,1.5C11.2,14.1,11.8,14.1,12.3,14.1z M10.6,17.5c0.6,0,1.1,0,1.7,0
		c0-0.6,0-1.1,0-1.7c-0.6,0-1.1,0-1.7,0C10.6,16.4,10.6,17,10.6,17.5z"/>
	<path class="st1" d="M29.6,20.9c0,0.4-0.2,1-0.4,1.5c-0.3,0.8-0.6,1.6-0.9,2.3c-0.1,0.2-0.1,0.4-0.1,0.6c0.4,1.4,0.8,2.7,1.2,4.1
		c0,0.1,0,0.1,0,0.2c-0.7-0.2-1.4-0.4-2-0.6c-0.8-0.2-1.6-0.4-2.4-0.7c-0.2-0.1-0.3,0-0.5,0.1c-4.6,2.5-10.4,0.9-12.8-3.7
		c0-0.1-0.1-0.2-0.1-0.3c3.4-0.1,6.5-1.4,8.9-3.8s3.7-5.4,3.8-9c0.6,0.4,1.1,0.7,1.6,1.1c2.1,1.7,3.3,3.6,3.6,6.3
		C29.7,19.6,29.6,20.5,29.6,20.9z"/>
</g>
</svg>
