<?xml version="1.0" encoding="utf-8"?>
<!-- Generator: Adobe Illustrator 24.2.0, SVG Export Plug-In . SVG Version: 6.00 Build 0)  -->
<svg version="1.1" id="Layer_1" xmlns="http://www.w3.org/2000/svg" xmlns:xlink="http://www.w3.org/1999/xlink" x="0px" y="0px"
	 viewBox="0 0 30 30" style="enable-background:new 0 0 30 30;" xml:space="preserve">
<style type="text/css">
	.st0{fill:#5059CD;}
	.st1{fill:none;}
	.st2{fill:#011839;}
</style>
<path class="st0" d="M1.5,0.2L0.4,1.4l11.3,11.3c0,0,6.3,6.5,7.9,8.1l9,9l1.2-1.2L1.5,0.2z"/>
<g>
	<rect x="2.8" y="10.9" class="st1" width="2.7" height="2.7"/>
	<path class="st2" d="M16.4,19.1h-2.7v-2.9c-1.3-1.3-2.4-2.5-2.7-2.8v8.4h5.5c0.8,0,1.5-0.3,2-0.8C17.9,20.5,17.2,19.8,16.4,19.1
		L16.4,19.1z"/>
	<path class="st2" d="M5.5,8.1H2.8C1.3,8.1,0,9.4,0,10.9v10.9h2.7v-5.5h2.7v5.5h2.7V10.9c0-0.1,0-0.1,0-0.2L5.7,8.2
		C5.6,8.2,5.6,8.1,5.5,8.1z M5.5,13.6H2.8v-2.7h2.7V13.6z"/>
	<path class="st2" d="M27.4,21.8c1.5,0,2.7-1.2,2.7-2.7v-2.7c0-1.5-1.2-2.7-2.7-2.7h-2.7v-2.7h5.5V8.1h-5.5c-1.5,0-2.7,1.2-2.7,2.7
		v2.7c0,1.5,1.2,2.7,2.7,2.7h2.7v2.7h-5.5v0.1l2.6,2.6H27.4z"/>
	<path class="st2" d="M13.7,10.9h2.7v2.9l2.7,2.7v-5.6c0-1.5-1.2-2.7-2.7-2.7H11v0.1l2.7,2.7V10.9z"/>
</g>
</svg>
