<?xml version="1.0" encoding="utf-8"?>
<!-- Generator: Adobe Illustrator 24.2.0, SVG Export Plug-In . SVG Version: 6.00 Build 0)  -->
<svg version="1.1" id="Layer_1" xmlns="http://www.w3.org/2000/svg" xmlns:xlink="http://www.w3.org/1999/xlink" x="0px" y="0px"
	 viewBox="0 0 30 30" style="enable-background:new 0 0 30 30;" xml:space="preserve">
<style type="text/css">
	.st0{fill:#5059CD;}
	.st1{fill:none;}
	.st2{fill:#011839;}
</style>
<g>
	<path class="st0" d="M27.5,26.7c-0.4-0.4-0.8-0.6-1.3-0.6c-0.5,0-1,0.2-1.3,0.6c-0.4,0.4-0.5,0.8-0.5,1.3c0,0.5,0.2,1,0.5,1.3
		c0.7,0.8,1.9,0.8,2.7,0c0.4-0.4,0.6-0.8,0.6-1.3C28.1,27.5,27.9,27.1,27.5,26.7z M24.3,7.1V22h3.8V7.1H24.3z"/>
	<g>
		<rect x="12.8" y="13.6" class="st1" width="2.7" height="1.4"/>
		<rect x="12.8" y="16.4" class="st1" width="2.7" height="1.4"/>
		<path class="st1" d="M26.2,26.1c-0.5,0-1,0.2-1.3,0.6c-0.4,0.4-0.5,0.8-0.5,1.3c0,0.5,0.2,1,0.5,1.3c0.7,0.7,1.9,0.7,2.7,0
			c0.4-0.4,0.6-0.8,0.6-1.3c0-0.5-0.2-1-0.6-1.3C27.1,26.3,26.7,26.1,26.2,26.1z"/>
		<path class="st2" d="M23.5,16.3c-1,5-4.8,9.8-9.3,10.9C9,25.9,4.7,19.8,4.7,13.9V7.2L14.2,3l9.3,4.1V6.3h3V5.5L14.2,0L1.9,5.5v8.2
			c0,7.5,5.2,14.6,12.3,16.3c4-1,7.4-3.7,9.6-7.1h-0.3V16.3z"/>
		<path class="st2" d="M13.2,9.7l-1.9-2l-1.1,1.1l1.6,1.6c-0.7,0.4-1.2,1.1-1.5,1.9h-3v1.4h2.7V15H7.4v1.4h2.7v1.4H7.4v1.4h3
			c0.5,1.6,2,2.7,3.8,2.7s3.3-1.1,3.8-2.7h3v-1.4h-2.7v-1.4H21V15h-2.7v-1.4H21v-1.4h-3c-0.3-0.8-0.8-1.5-1.5-2l1.6-1.6l-1-1
			l-1.9,1.9h-1.1C13.9,9.6,13.5,9.6,13.2,9.7z M15.6,17.7h-2.7v-1.4h2.7V17.7z M15.6,13.6V15h-2.7v-1.4H15.6z"/>
	</g>
</g>
</svg>
