<svg xmlns="http://www.w3.org/2000/svg" width="30" height="30" viewBox="0 0 30 30"><g transform="translate(-240 -210)"><rect width="30" height="30" transform="translate(240 210)" fill="#fff"/><path d="M8.356,28.15A4.007,4.007,0,0,1,4.3,24.094V19.749H8.327V3.15L10.239,5,12.122,3.15,13.947,5,15.859,3.15,17.713,5,19.6,3.15,21.449,5,23.332,3.15,25.186,5,27.127,3.15V24.094a4.031,4.031,0,0,1-4.056,4.056ZM23.043,25.4a1.189,1.189,0,0,0,.9-.362,1.3,1.3,0,0,0,.348-.941V6.684H11.137V21.2H21.884v2.9a1.461,1.461,0,0,0,.29.941A1.046,1.046,0,0,0,23.043,25.4ZM12.672,11.319V9.581h6.4v1.738Zm0,3.882V13.463h6.4V15.2Zm9.1-3.882a.891.891,0,1,1,.608-.261A.834.834,0,0,1,21.768,11.319Zm0,3.737a.891.891,0,1,1,.608-.261A.834.834,0,0,1,21.768,15.056Z" transform="translate(242.873 206.85)"/><circle cx="9" cy="9" r="9" transform="translate(242 222)" fill="#fff"/><path d="M8.153,13.582a5.415,5.415,0,0,1-.772-1.649,6.823,6.823,0,0,1-.231-1.784A6.266,6.266,0,0,1,9.04,5.616a6.057,6.057,0,0,1,4.475-1.929h.829L13.033,2.357l.907-.907,3.125,3.144L13.939,7.719l-.926-.907L14.306,5.5h-.752A4.383,4.383,0,0,0,10.323,6.88a4.5,4.5,0,0,0-1.36,3.269,5.109,5.109,0,0,0,.125,1.157,5.25,5.25,0,0,0,.338,1Zm5.169,5.323L10.2,15.781l3.125-3.163.926.926-1.331,1.312h.829a4.383,4.383,0,0,0,3.231-1.379,4.521,4.521,0,0,0,1.36-3.289,5.019,5.019,0,0,0-.125-1.138,4.518,4.518,0,0,0-.357-1l1.292-1.273a6.2,6.2,0,0,1,.762,1.659,6.391,6.391,0,0,1,.241,1.755,6.32,6.32,0,0,1-1.89,4.562A6.022,6.022,0,0,1,13.8,16.687h-.887L14.248,18Z" transform="translate(259.905 217.622) rotate(90)" fill="#5059cd" stroke="#5059cd" stroke-width="1"/></g></svg>