<svg xmlns="http://www.w3.org/2000/svg" width="30" height="30" viewBox="0 0 30 30"><defs><style>.a{fill:#011839;}.b{fill:#5059cd;}</style></defs><g transform="translate(-0.742 -1.02)"><path class="a" d="M27.048,11h0A3.989,3.989,0,0,0,24.1,7.151a8.8,8.8,0,0,0-16.772,0A3.991,3.991,0,0,0,4.436,11h0a4.009,4.009,0,0,0,.492,8h9.831v5.161a3.5,3.5,0,0,0-2.422,3.86,3.433,3.433,0,0,0,6.81,0,3.5,3.5,0,0,0-2.422-3.86V19h9.831a4.009,4.009,0,0,0,.492-8Zm-9.831,16.5a1.475,1.475,0,1,1-1.475-1.5A1.488,1.488,0,0,1,17.217,27.506ZM26.556,17H4.928a2,2,0,0,1,0-4H5.6a.977.977,0,0,0,.841-.4,1.014,1.014,0,0,0,.142-.933A1.916,1.916,0,0,1,6.4,11,1.987,1.987,0,0,1,8.212,9a.988.988,0,0,0,.875-.75,6.852,6.852,0,0,1,13.311,0,.988.988,0,0,0,.875.75,1.987,1.987,0,0,1,1.809,2H19.674a1,1,0,0,0,0,2h6.882a2,2,0,0,1,0,4Z" transform="translate(0)"/><path class="b" d="M28,23a3,3,0,0,0-2.24,1L24,23.32V21H22v3a1,1,0,0,0,.63.93l2.38.95L25,26a3,3,0,1,0,3-3Z" transform="translate(-0.516 0.006)"/><path class="b" d="M8,23.32,6.24,24A3,3,0,1,0,7,26s0-.08,0-.12l2.38-.95A1,1,0,0,0,10,24V21H8Z" transform="translate(0 0.006)"/></g></svg>