<svg xmlns="http://www.w3.org/2000/svg" width="30" height="30" viewBox="0 0 30 30"><defs><style>.a{fill:#011839;}.b{fill:#5059cd;}</style></defs><g transform="translate(-1 -1)"><path class="a" d="M30,19.25H29v-.5a1,1,0,0,0-1-1H26v-3.5h2a1,1,0,0,0,1-1v-.5h1a1,1,0,0,0,0-2H29v-.5a1,1,0,0,0-1-1H26V9a3,3,0,0,0-3-3h-.25V4a1,1,0,0,0-1-1h-.5V2a1,1,0,1,0-2,0V3h-.5a1,1,0,0,0-1,1V6h-3.5V4a1,1,0,0,0-1-1h-.5V2a1,1,0,1,0-2,0V3h-.5a1,1,0,0,0-1,1V6H9A3,3,0,0,0,6,9v.25H4a1,1,0,0,0-1,1v.5H2a1,1,0,0,0,0,2H3v.5a1,1,0,0,0,1,1H6v3.5H4a1,1,0,0,0-1,1v.5H2a1,1,0,0,0,0,2H3v.5a1,1,0,0,0,1,1H6V23a3,3,0,0,0,3,3h.25v2a1,1,0,0,0,1,1h.5v1a1,1,0,0,0,2,0V29h.5a1,1,0,0,0,1-1V26h3.5v2a1,1,0,0,0,1,1h.5v1a1,1,0,0,0,2,0V29h.5a1,1,0,0,0,1-1V26H23a3,3,0,0,0,3-3v-.25h2a1,1,0,0,0,1-1v-.5h1a1,1,0,0,0,0-2Zm-3-8v1H26v-1ZM19.75,5h1V6h-1Zm-8.5,0h1V6h-1ZM5,12.25v-1H6v1Zm0,8.5v-1H6v1ZM12.25,27h-1V26h1Zm8.5,0h-1V26h1ZM24,23a1,1,0,0,1-1,1H9a1,1,0,0,1-1-1V9A1,1,0,0,1,9,8H23a1,1,0,0,1,1,1Zm3-2.25H26v-1h1Z"/><path class="b" d="M19.5,9.5h-7a3,3,0,0,0-3,3v7a3,3,0,0,0,3,3h7a3,3,0,0,0,3-3v-7a3,3,0,0,0-3-3ZM18,19H14a1,1,0,0,1,0-2h4a1,1,0,0,1,0,2Zm0-4H14a1,1,0,0,1,0-2h4a1,1,0,0,1,0,2Z"/></g></svg>