<svg xmlns="http://www.w3.org/2000/svg" xmlns:xlink="http://www.w3.org/1999/xlink" width="30" height="30" viewBox="0 0 30 30">
  <defs>
    <clipPath id="clip-Database">
      <rect width="30" height="30"/>
    </clipPath>
  </defs>
  <g id="Database" clip-path="url(#clip-Database)">
    <rect width="30" height="30" fill="#fff"/>
    <path id="database_FILL0_wght400_GRAD0_opsz48" d="M18,16.667a19.741,19.741,0,0,1-8.683-1.633Q6,13.4,6,11.333q0-2.1,3.317-3.717A19.917,19.917,0,0,1,18,6a19.917,19.917,0,0,1,8.683,1.617Q30,9.233,30,11.333q0,2.067-3.317,3.7A19.741,19.741,0,0,1,18,16.667Z" transform="translate(-3 -3)" fill="#5059cd"/>
    <path id="database_FILL0_wght400_GRAD0_opsz48-2" data-name="database_FILL0_wght400_GRAD0_opsz48" d="M18,23.333a22.1,22.1,0,0,1-8.433-1.467Q6,20.4,6,18.333V15a2.773,2.773,0,0,0,1.25,2.25,10.657,10.657,0,0,0,3.1,1.567,21.633,21.633,0,0,0,3.933.9A27.9,27.9,0,0,0,18,20a27.73,27.73,0,0,0,3.733-.283,22.642,22.642,0,0,0,3.917-.883,10.373,10.373,0,0,0,3.1-1.55A2.8,2.8,0,0,0,30,15v3.333q0,2.067-3.567,3.533A22.1,22.1,0,0,1,18,23.333ZM18,30a22.1,22.1,0,0,1-8.433-1.467Q6,27.067,6,25V21.667a2.773,2.773,0,0,0,1.25,2.25,10.656,10.656,0,0,0,3.1,1.567,21.634,21.634,0,0,0,3.933.9A27.9,27.9,0,0,0,18,26.667a27.73,27.73,0,0,0,3.733-.283A22.642,22.642,0,0,0,25.65,25.5a10.373,10.373,0,0,0,3.1-1.55A2.8,2.8,0,0,0,30,21.667V25q0,2.067-3.567,3.533A22.1,22.1,0,0,1,18,30Z" transform="translate(-3 -3)"/>
  </g>
</svg>
