<?xml version="1.0" encoding="utf-8"?>
<!-- Generator: Adobe Illustrator 24.2.0, SVG Export Plug-In . SVG Version: 6.00 Build 0)  -->
<svg version="1.1" id="Layer_1" xmlns="http://www.w3.org/2000/svg" xmlns:xlink="http://www.w3.org/1999/xlink" x="0px" y="0px"
	 viewBox="0 0 30 30" style="enable-background:new 0 0 30 30;" xml:space="preserve">
<style type="text/css">
	.st0{fill:none;}
	.st1{fill:#011839;}
	.st2{fill:#5059CD;}
</style>
<g>
	<g>
		<path class="st0" d="M20.1,5.2c-0.8,0-1.4,0.6-1.4,1.4c0,0.8,0.6,1.4,1.4,1.4c0.8,0,1.4-0.6,1.4-1.4C21.5,5.9,20.9,5.2,20.1,5.2z"
			/>
		<path class="st0" d="M20.1,22.8c0.8,0,1.4-0.6,1.4-1.4c0-0.8-0.6-1.4-1.4-1.4c-0.8,0-1.4,0.6-1.4,1.4
			C18.7,22.2,19.3,22.8,20.1,22.8z"/>
		<path class="st0" d="M24.7,22.8c0.8,0,1.4-0.6,1.4-1.4c0-0.8-0.6-1.4-1.4-1.4c-0.8,0-1.4,0.6-1.4,1.4C23.3,22.2,24,22.8,24.7,22.8
			z"/>
		<path class="st0" d="M24.3,5.2c-0.8,0-1.4,0.6-1.4,1.4c0,0.8,0.6,1.4,1.4,1.4c0.8,0,1.4-0.6,1.4-1.4C25.6,5.9,25,5.2,24.3,5.2z"/>
		<path class="st1" d="M3.5,17.7c0,0-0.9-0.2-1.5-1.2c-1,0.7-1.8,1.8-1.8,3.1v3.7c0,1.9,1.4,3.4,3.3,3.7C3.5,24.6,3.5,17.7,3.5,17.7
			z"/>
		<path class="st1" d="M29.8,8V5.3c0-2.3-1.9-4.2-4.2-4.2H4.4C2.1,1.1,0.2,3,0.2,5.3v3.2c0,0.4,0.1,0.8,0.2,1.2
			c0-0.3,0.2-0.9,0.6-1.4C1.6,7.4,2.6,6,3.8,5.8c1-0.1,1.6,0.2,1.6,0.5v4.2c0,0.1,0.1,0.3,0.2,0.4l1,0.9C6.7,12,7,12,7.2,11.8
			l0.8-0.8c0.1-0.1,0.2-0.2,0.2-0.4l0.1-4.2c0,0,0.2-1.1,1.2-0.8c1.7,0.5,2.4,1.4,3,2.3c0.6,0.8,1,2.2,1.1,3.7
			c0,0.3,0.2,0.5,0.5,0.5h11.5C27.9,12.2,29.8,10.3,29.8,8z M20.1,8c-0.8,0-1.4-0.6-1.4-1.4c0-0.8,0.6-1.4,1.4-1.4
			c0.8,0,1.4,0.6,1.4,1.4C21.5,7.4,20.9,8,20.1,8z M24.3,8c-0.8,0-1.4-0.6-1.4-1.4c0-0.8,0.6-1.4,1.4-1.4c0.8,0,1.4,0.6,1.4,1.4
			C25.6,7.4,25,8,24.3,8z"/>
		<path class="st1" d="M10.4,17.8c0,0,0,6.3,0,9.2h15.7c2,0,3.7-1.7,3.7-3.7v-3.7c0-2-1.7-3.7-3.7-3.7H12.2
			C11.4,17.2,10.4,17.8,10.4,17.8z M24.7,20.1c0.8,0,1.4,0.6,1.4,1.4c0,0.8-0.6,1.4-1.4,1.4c-0.8,0-1.4-0.6-1.4-1.4
			C23.3,20.7,24,20.1,24.7,20.1z M20.1,20.1c0.8,0,1.4,0.6,1.4,1.4c0,0.8-0.6,1.4-1.4,1.4c-0.8,0-1.4-0.6-1.4-1.4
			C18.7,20.7,19.3,20.1,20.1,20.1z"/>
	</g>
	<path class="st2" d="M11,15.9c2.3-2.3,2.3-6,0-8.3c-0.4-0.4-0.8-0.7-1.3-1C9.4,6.4,8.9,6.7,8.9,7.1v4c0,0.2-0.1,0.3-0.2,0.4L7.3,13
		c-0.2,0.2-0.6,0.2-0.8,0L5,11.5c-0.1-0.1-0.2-0.3-0.2-0.4l0-4c0-0.4-0.4-0.7-0.8-0.5c-0.5,0.3-0.9,0.6-1.3,1c-2.3,2.3-2.3,6,0,8.3
		c0.5,0.5,1.1,0.9,1.7,1.2v9.4c0,0.7,0.3,1.3,0.7,1.8c1,1,2.5,1,3.5,0c0.5-0.5,0.7-1.1,0.7-1.8l0-9.4C10,16.8,10.5,16.4,11,15.9z
		 M7.5,26.4c-0.3,0.3-0.9,0.3-1.2,0c-0.3-0.3-0.3-0.9,0-1.2c0.3-0.3,0.9-0.3,1.2,0C7.8,25.5,7.8,26.1,7.5,26.4z"/>
</g>
</svg>
