<?xml version="1.0" encoding="utf-8"?>
<!-- Generator: Adobe Illustrator 24.2.0, SVG Export Plug-In . SVG Version: 6.00 Build 0)  -->
<svg version="1.1" id="Layer_1" xmlns="http://www.w3.org/2000/svg" xmlns:xlink="http://www.w3.org/1999/xlink" x="0px" y="0px"
	 viewBox="0 0 30 30" style="enable-background:new 0 0 30 30;" xml:space="preserve">
<style type="text/css">
	.st0{fill:#011839;}
	.st1{fill:#5059CD;}
</style>
<path class="st0" d="M6.2,26.7h17.6c0.8,0,1.5,0.7,1.5,1.5s-0.7,1.5-1.5,1.5H6.2c-0.8,0-1.5-0.7-1.5-1.5S5.4,26.7,6.2,26.7z"/>
<g transform="translate(-129.5 -230)">
	<g>
		<path class="st0" d="M129.8,239.2v-5.6c0-0.9,0.3-1.7,1-2.3c0.6-0.6,1.4-1,2.3-1H156c1.8,0,3.3,1.5,3.3,3.3v5.6H156v-5.6H133v5.6
			H129.8z M133,254.2c-0.9,0-1.7-0.3-2.3-1c-0.6-0.6-1-1.4-1-2.3v-5.6h3.3v5.6H156v-5.6h3.3v5.6c0,0.9-0.3,1.7-1,2.3
			c-0.6,0.6-1.5,1-2.3,1L133,254.2z"/>
	</g>
	<g>
		<path class="st1" d="M141.3,249.4L141.3,249.4c-0.1-0.1-0.2-0.2-0.3-0.2c-0.3-0.1-0.5-0.4-0.6-0.6l-2.4-4.7h-8.2v-3.1h9.2
			c0.3,0,0.5,0.1,0.8,0.2c0.3,0.1,0.5,0.4,0.6,0.6l1.4,2.8l4.2-8.3c0.1-0.3,0.4-0.5,0.6-0.6c0.5-0.2,1-0.2,1.5,0
			c0.3,0.1,0.5,0.4,0.6,0.6l2.4,4.7h8.2v3.1H150c-0.3,0-0.5-0.1-0.8-0.2c-0.3-0.1-0.5-0.4-0.6-0.6l-1.4-2.8l-4.2,8.3
			c-0.1,0.3-0.3,0.5-0.6,0.6c-0.2,0.1-0.5,0.2-0.8,0.2L141.3,249.4z"/>
	</g>
</g>
</svg>
