<svg width="300" height="300" viewBox="0 0 300 300" fill="none" xmlns="http://www.w3.org/2000/svg">
<g clip-path="url(#clip0_5_2)">
<rect width="300" height="300" fill="white"/>
<rect x="12" y="12" width="236" height="236" rx="36" stroke="#212121" stroke-width="24"/>
<g clip-path="url(#clip1_5_2)">
<path d="M216 238C227.598 238 237 228.598 237 217C237 205.402 227.598 196 216 196C204.402 196 195 205.402 195 217C195 228.598 204.402 238 216 238Z" fill="#5059CD" stroke="white" stroke-width="17"/>
<path d="M302.236 201.813L302.233 201.803L295.661 180.838C294.798 177.91 293.356 175.184 291.422 172.823C289.478 170.451 287.077 168.495 284.362 167.071C281.646 165.647 278.672 164.785 275.616 164.536C272.565 164.287 269.495 164.654 266.589 165.615C266.584 165.617 266.579 165.618 266.575 165.62L263.769 166.528L263.757 166.531L263.745 166.535C262.137 167.067 260.425 167.202 258.755 166.928C257.084 166.655 255.504 165.982 254.15 164.966L254.126 164.949L254.103 164.932L253.229 164.296C251.918 163.284 250.861 161.98 250.141 160.489C249.414 158.983 249.052 157.328 249.083 155.657L249.083 155.62V155.583V153.266C249.128 146.978 246.677 140.929 242.269 136.446L242.259 136.436C240.143 134.299 237.626 132.6 234.852 131.439C232.078 130.277 229.102 129.675 226.094 129.667H226.083H204.833H204.807L204.782 129.667C198.628 129.747 192.755 132.254 188.442 136.643C184.13 141.03 181.725 146.941 181.75 153.092V155.076C181.743 156.895 181.329 158.688 180.537 160.325C179.75 161.954 178.609 163.387 177.198 164.519L176.158 165.319C174.591 166.501 172.76 167.284 170.823 167.6C168.886 167.915 166.901 167.754 165.04 167.13C162.254 166.169 159.302 165.782 156.362 165.992C153.426 166.201 150.563 167.003 147.945 168.347C145.231 169.698 142.824 171.592 140.871 173.911C138.919 176.229 137.463 178.923 136.593 181.826L129.773 203.449C127.87 209.331 128.361 215.727 131.141 221.25C133.924 226.778 138.776 230.985 144.642 232.958L145.262 233.167H145.917H146.468C147.875 233.792 149.141 234.701 150.186 235.839C151.382 237.142 152.254 238.709 152.732 240.412L152.778 240.577L152.838 240.738L153.331 242.052C154.039 244.004 154.275 246.096 154.02 248.156C153.767 250.201 153.038 252.157 151.892 253.868C148.223 258.903 146.678 265.179 147.593 271.344C148.512 277.533 151.837 283.11 156.843 286.862C156.847 286.864 156.85 286.866 156.853 286.869L174.083 299.937L174.115 299.961L174.148 299.985C178.052 302.824 182.756 304.346 187.58 304.335C188.848 304.445 190.123 304.438 191.39 304.314L191.576 304.296L191.76 304.26C194.794 303.673 197.677 302.474 200.233 300.735C202.764 299.013 204.922 296.798 206.577 294.223L208.448 291.538C209.434 290.123 210.739 288.96 212.257 288.143C213.773 287.327 215.46 286.877 217.182 286.832C218.969 286.788 220.739 287.198 222.325 288.023C223.911 288.847 225.263 290.061 226.253 291.549L226.284 291.595L226.315 291.64L227.29 293.021C229.012 295.571 231.235 297.745 233.824 299.408C236.426 301.08 239.343 302.202 242.396 302.705C245.448 303.207 248.571 303.079 251.572 302.329C254.567 301.581 257.377 300.229 259.83 298.356C259.836 298.352 259.841 298.348 259.847 298.344L276.731 285.702L276.759 285.681L276.787 285.659C281.593 281.926 284.79 276.496 285.721 270.482C286.651 264.471 285.248 258.332 281.799 253.322C281.798 253.319 281.796 253.317 281.794 253.314L279.665 250.203C278.69 248.683 278.05 246.972 277.79 245.184C277.528 243.381 277.658 241.542 278.171 239.793L278.179 239.768L278.186 239.743C278.699 237.906 279.653 236.221 280.963 234.835C282.274 233.448 283.902 232.402 285.708 231.786L285.723 231.781L285.738 231.775L287.395 231.196C287.396 231.195 287.398 231.195 287.399 231.194C293.201 229.18 297.992 224.989 300.761 219.507C303.53 214.024 304.06 207.679 302.236 201.813ZM216 242.167C211.022 242.167 206.157 240.691 202.018 237.925C197.879 235.16 194.654 231.229 192.749 226.631C190.844 222.032 190.346 216.972 191.317 212.09C192.288 207.208 194.685 202.724 198.204 199.204C201.724 195.685 206.208 193.288 211.09 192.317C215.972 191.346 221.032 191.844 225.631 193.749C230.229 195.654 234.16 198.88 236.925 203.018C239.691 207.157 241.167 212.022 241.167 217C241.167 223.675 238.515 230.076 233.796 234.796C229.076 239.515 222.675 242.167 216 242.167Z" fill="#5059CD" stroke="white" stroke-width="8"/>
</g>
<circle cx="54" cy="54" r="12" fill="#212121"/>
<circle cx="88" cy="54" r="12" fill="#212121"/>
</g>
<defs>
<clipPath id="clip0_5_2">
<rect width="300" height="300" fill="white"/>
</clipPath>
<clipPath id="clip1_5_2">
<rect width="200" height="200" fill="white" transform="translate(116 117)"/>
</clipPath>
</defs>
</svg>
