<?xml version="1.0" encoding="utf-8"?>
<!-- Generator: Adobe Illustrator 24.2.0, SVG Export Plug-In . SVG Version: 6.00 Build 0)  -->
<svg version="1.1" id="Layer_1" xmlns="http://www.w3.org/2000/svg" xmlns:xlink="http://www.w3.org/1999/xlink" x="0px" y="0px"
	 viewBox="0 0 30 30" style="enable-background:new 0 0 30 30;" xml:space="preserve">
<style type="text/css">
	.st0{clip-path:url(#SVGID_2_);}
	.st1{fill:#F1F2FF;}
	.st2{enable-background:new    ;}
	.st3{fill:#011839;}
	.st4{fill:#5059CD;}
</style>
<g>
	<defs>
		<rect id="SVGID_1_" x="0.2" y="0.2" width="29.6" height="29.6"/>
	</defs>
	<clipPath id="SVGID_2_">
		<use xlink:href="#SVGID_1_"  style="overflow:visible;"/>
	</clipPath>
	<g id="a" class="st0">
		<g transform="translate(-320 -140)">
			<g>
				<path class="st1" d="M331.3,142.2c6.1,0,18.5,5,18.5,11.1s-12.4,11.1-18.5,11.1c-6.1,0-11.1-5-11.1-11.1
					C320.2,147.1,325.2,142.2,331.3,142.2z"/>
			</g>
			<g class="st2">
				<path class="st3" d="M324.8,155v-1.2h1.2v1.2H324.8z"/>
				<path class="st3" d="M331.3,151.8l-1.2,0.2c0-0.2-0.1-0.4-0.3-0.5s-0.3-0.2-0.6-0.2c-0.3,0-0.5,0.1-0.7,0.3s-0.3,0.6-0.3,1.1
					c0,0.5,0.1,0.9,0.3,1.2s0.4,0.3,0.7,0.3c0.2,0,0.4-0.1,0.6-0.2c0.1-0.1,0.3-0.4,0.3-0.7l1.2,0.2c-0.1,0.5-0.4,1-0.7,1.2
					c-0.4,0.3-0.8,0.4-1.4,0.4c-0.7,0-1.2-0.2-1.6-0.6c-0.4-0.4-0.6-1-0.6-1.8c0-0.8,0.2-1.4,0.6-1.8s0.9-0.6,1.6-0.6
					c0.6,0,1,0.1,1.3,0.4C330.9,150.9,331.1,151.3,331.3,151.8z"/>
				<path class="st3" d="M331.9,152.6c0-0.4,0.1-0.8,0.3-1.2c0.2-0.4,0.5-0.7,0.8-0.9c0.4-0.2,0.8-0.3,1.2-0.3
					c0.7,0,1.3,0.2,1.7,0.7s0.7,1,0.7,1.7c0,0.7-0.2,1.3-0.7,1.7c-0.4,0.5-1,0.7-1.7,0.7c-0.4,0-0.8-0.1-1.2-0.3s-0.7-0.5-0.9-0.8
					C332,153.6,331.9,153.2,331.9,152.6z M333.2,152.7c0,0.5,0.1,0.8,0.3,1c0.2,0.2,0.5,0.4,0.8,0.4c0.3,0,0.6-0.1,0.8-0.4
					c0.2-0.2,0.3-0.6,0.3-1.1c0-0.5-0.1-0.8-0.3-1c-0.2-0.2-0.5-0.4-0.8-0.4c-0.3,0-0.6,0.1-0.8,0.4
					C333.3,151.9,333.2,152.2,333.2,152.7z"/>
				<path class="st3" d="M337.5,150.4h1.1v0.6c0.4-0.5,0.9-0.7,1.4-0.7c0.3,0,0.6,0.1,0.8,0.2c0.2,0.1,0.4,0.3,0.5,0.6
					c0.2-0.2,0.4-0.4,0.7-0.6c0.2-0.1,0.5-0.2,0.8-0.2c0.3,0,0.6,0.1,0.9,0.2c0.2,0.1,0.4,0.3,0.5,0.6c0.1,0.2,0.1,0.5,0.1,1v2.9
					h-1.2v-2.6c0-0.5,0-0.8-0.1-0.9c-0.1-0.2-0.3-0.3-0.5-0.3c-0.2,0-0.3,0.1-0.5,0.2c-0.2,0.1-0.3,0.3-0.3,0.5
					c-0.1,0.2-0.1,0.5-0.1,1v2.2h-1.2v-2.5c0-0.4,0-0.7-0.1-0.9c0-0.1-0.1-0.2-0.2-0.3c-0.1-0.1-0.2-0.1-0.4-0.1
					c-0.2,0-0.4,0.1-0.5,0.2c-0.2,0.1-0.3,0.2-0.3,0.4s-0.1,0.5-0.1,1v2.2h-1.2V150.4z"/>
			</g>
			<g>
				<path class="st4" d="M344.5,165.5h0.7v-2h2.1v-0.7h-2.1v-2.1h-0.7v2.1h-2.1v0.7h2.1V165.5z M344.9,167.9c-0.7,0-1.3-0.1-1.9-0.4
					c-1.2-0.5-2.1-1.4-2.6-2.6c-0.5-1.2-0.5-2.6,0-3.8c0.2-0.6,0.6-1.1,1.1-1.6c0.5-0.4,1-0.8,1.6-1.1c1.2-0.5,2.6-0.5,3.8,0
					c1.2,0.5,2.1,1.4,2.6,2.6c0.5,1.2,0.5,2.6,0,3.8c-0.2,0.6-0.6,1.1-1.1,1.6c-0.4,0.5-1,0.8-1.6,1.1
					C346.2,167.8,345.5,167.9,344.9,167.9z"/>
			</g>
		</g>
	</g>
</g>
</svg>
