<?xml version="1.0" encoding="utf-8"?>
<!-- Generator: Adobe Illustrator 24.2.0, SVG Export Plug-In . SVG Version: 6.00 Build 0)  -->
<svg version="1.1" id="Layer_1" xmlns="http://www.w3.org/2000/svg" xmlns:xlink="http://www.w3.org/1999/xlink" x="0px" y="0px"
	 viewBox="0 0 30 30" style="enable-background:new 0 0 30 30;" xml:space="preserve">
<style type="text/css">
	.st0{fill:none;}
	.st1{fill:#011839;}
	.st2{fill:#5059CD;}
</style>
<g>
	<path class="st0" d="M16.9,11h-6.5c-0.1,0.6-0.1,1.2-0.2,1.5c0,0.4,0,0.8,0,1.2s0,0.8,0,1.2s0.1,0.9,0.2,1.6h6.5
		c0.1-0.6,0.1-1.2,0.1-1.6c0-0.4,0-0.8,0-1.2s0-0.8,0-1.2C17,12.2,16.9,11.7,16.9,11z"/>
	<path class="st0" d="M16.6,9.2c-0.2-1.1-0.6-2.1-1.1-3.1c-0.5-1-1.2-1.9-1.8-2.7C13,3.9,12.5,4.6,12,5.5c-0.4,0.9-0.9,2.1-1.3,3.7
		H16.6z"/>
	<path class="st0" d="M9.7,6.3C10,5.4,10.4,4.5,11,3.7c-1.5,0.4-2.9,1-4,1.9c-1.1,0.9-2,2.1-2.7,3.5h4.6C9.1,8.1,9.4,7.1,9.7,6.3z"
		/>
	<path class="st0" d="M18.4,9.2H23c-0.7-1.4-1.6-2.6-2.8-3.5c-1.2-0.9-2.5-1.6-4-2c0.5,0.7,1,1.6,1.3,2.5S18.2,8.1,18.4,9.2z"/>
	<path class="st0" d="M8.8,18.3H4.3c0.7,1.5,1.6,2.6,2.7,3.4c1,0.8,2.4,1.5,4.1,2.1c-0.5-0.7-1-1.6-1.3-2.5
		C9.4,20.4,9.1,19.4,8.8,18.3z"/>
	<path class="st0" d="M10.8,18.3c0.3,1.2,0.6,2.4,1.1,3.3c0.5,1,1.1,1.8,1.7,2.6c0.7-0.7,1.2-1.6,1.7-2.5c0.5-0.9,0.9-2.1,1.2-3.4
		H10.8z"/>
	<path class="st0" d="M8.4,15c0-0.4,0-0.9,0-1.3c0-0.5,0-1,0-1.4s0.1-0.8,0.1-1.3H3.7c-0.1,0.5-0.2,0.9-0.3,1.3
		c-0.1,0.4-0.1,0.8-0.1,1.4c0,0.5,0,1,0.1,1.4c0.1,0.4,0.2,0.9,0.3,1.4h4.8C8.4,15.9,8.4,15.4,8.4,15z"/>
	<path class="st1" d="M20.2,21.8c0,0-2.6,1.5-4,2c0.5-0.7,1-1.6,1.3-2.5c0.4-0.9,0.7-1.9,0.9-3l0.3-1.8c0-0.6,0-1.1,0.1-1.5
		c0-0.4,0-0.8,0-1.2c0-0.3,0-0.7,0-1c0-0.4,0-0.9-0.1-1.7H23c0.5-0.1,0.9-0.2,1.5-0.2c0.8,0,1.6,0.2,2.3,0.5c-0.2-1-0.4-1.9-0.8-2.8
		c-0.7-1.6-1.6-3-2.8-4.2c-1.2-1.2-2.6-2.1-4.2-2.8s-3.3-1-5.2-1c-1.9,0-3.6,0.3-5.2,1s-3,1.6-4.2,2.8C3,5.5,2.1,6.9,1.4,8.5
		s-1,3.3-1,5.2s0.3,3.6,1,5.2c0.7,1.6,1.6,3,2.8,4.2c1.2,1.2,2.6,2.2,4.2,2.8s3.3,1,5.2,1c1.9,0,3.6-0.3,5.2-1
		c1.2-0.5,2.2-1.1,3.1-1.9L20.2,21.8z M17,14.9c0,0.4,0,0.9-0.1,1.6h-6.5c-0.1-0.6-0.1-1.2-0.2-1.6s0-0.8,0-1.2s0-0.8,0-1.2
		c0-0.4,0.1-0.9,0.2-1.5h6.5c0.1,0.6,0.1,1.2,0.1,1.5c0,0.4,0,0.8,0,1.2S17,14.5,17,14.9z M20.2,5.7c1.2,0.9,2.1,2.1,2.8,3.5h-4.5
		c-0.3-1.1-0.6-2.2-0.9-3s-0.8-1.7-1.3-2.5C17.7,4.1,19,4.7,20.2,5.7z M13.6,3.4c0.7,0.7,1.3,1.6,1.8,2.7c0.5,1,0.9,2.1,1.1,3.1
		h-5.8c0.4-1.5,0.8-2.8,1.3-3.7C12.5,4.6,13,3.9,13.6,3.4z M7,5.7c1.1-0.9,2.5-1.6,4-1.9c-0.6,0.8-1,1.7-1.3,2.5
		C9.4,7.1,9.1,8.1,8.8,9.2H4.3C4.9,7.8,5.9,6.6,7,5.7z M3.7,16.5c-0.1-0.5-0.2-1-0.3-1.4c-0.1-0.4-0.1-0.9-0.1-1.4
		c0-0.5,0-1,0.1-1.4c0.1-0.4,0.2-0.8,0.3-1.3h4.8c-0.1,0.5-0.1,0.9-0.1,1.3s0,0.8,0,1.4c0,0.4,0,0.8,0,1.3c0,0.4,0,0.9,0.1,1.5H3.7z
		 M6.9,21.7c-1-0.8-1.9-2-2.7-3.4h4.6c0.2,1.1,0.5,2.1,0.9,3.1c0.3,0.9,0.8,1.7,1.3,2.5C9.3,23.2,7.9,22.5,6.9,21.7z M13.6,24.2
		c-0.7-0.7-1.2-1.6-1.7-2.6c-0.5-1-0.9-2.1-1.1-3.3h5.8c-0.3,1.3-0.7,2.5-1.2,3.4C14.8,22.6,14.3,23.5,13.6,24.2z"/>
	<path class="st2" d="M28.3,12.8c-0.3-0.3-0.7-0.6-1.1-0.8c-0.7-0.4-1.6-0.7-2.5-0.7c-0.3,0-0.5,0-0.8,0.1c-1.1,0.1-2,0.6-2.8,1.4
		c-1,1-1.5,2.2-1.5,3.6c0,0,0,0.1,0,0.1c0,0.7,0.1,1.3,0.4,1.8c0.1,0.4,0.3,0.7,0.6,1c0.3,0.4,0.7,0.8,1.1,1.1
		c0.4,0.3,0.9,0.5,1.4,0.6l0.3,0.1v1l-1.2,1.2l0.6,0.6l1.3,1.3l-1.9,2.1l2.6,2.4l1.3-1.4v-7.2l0.3-0.1c1-0.3,1.8-0.9,2.4-1.7
		c0.6-0.8,0.9-1.8,0.9-3C29.7,15,29.3,13.8,28.3,12.8z M26.1,17.7c-0.1,0.1-0.3,0.2-0.4,0.3c-0.3,0.2-0.6,0.2-0.9,0.2
		c-0.4,0-0.8-0.1-1.2-0.4c-0.1-0.1-0.1-0.1-0.2-0.2c-0.1,0-0.1-0.1-0.1-0.2c-0.3-0.3-0.4-0.7-0.4-1.2c0,0,0,0,0,0
		c0-0.5,0.2-1,0.6-1.4c0.3-0.3,0.6-0.5,1-0.5c0.1,0,0.2,0,0.3,0c0.5,0,1,0.2,1.4,0.6c0.1,0.1,0.2,0.2,0.2,0.3
		c0.2,0.3,0.3,0.7,0.3,1.1C26.6,16.9,26.4,17.4,26.1,17.7z"/>
</g>
</svg>
