<?xml version="1.0" encoding="utf-8"?>
<!-- Generator: Adobe Illustrator 24.2.0, SVG Export Plug-In . SVG Version: 6.00 Build 0)  -->
<svg version="1.1" id="Layer_1" xmlns="http://www.w3.org/2000/svg" xmlns:xlink="http://www.w3.org/1999/xlink" x="0px" y="0px"
	 viewBox="0 0 30 30" style="enable-background:new 0 0 30 30;" xml:space="preserve">
<style type="text/css">
	.st0{fill:none;}
	.st1{fill:#011839;}
	.st2{fill:#5059CD;stroke:#5059CD;stroke-width:0.7688;stroke-miterlimit:10;}
</style>
<g>
	<path class="st0" d="M19.4,6.1c-0.3-1-0.7-2-1-3c-0.1-0.2-0.2-0.3-0.4-0.4c-0.5-0.1-1-0.2-1.5-0.2l-0.3,0v5.3
		c1.3-0.1,2.5-0.2,3.5-0.4L19.4,6.1z"/>
	<path class="st0" d="M23.8,6c-0.8-0.8-1.7-1.4-2.6-2L22,6.7L23.8,6z"/>
	<path class="st0" d="M20.2,9.6l-4,0.5v3.7h4.5C20.6,12.3,20.5,10.9,20.2,9.6z"/>
	<path class="st0" d="M13.8,2.5c-0.7,0-1.4,0.2-2.1,0.4c0,0,0,0,0,0.1c-0.4,1.1-0.8,2.3-1.2,3.4c-0.1,0.3-0.2,0.6-0.2,0.9l0,0.1
		c1,0.2,2.9,0.5,3.6,0.5V2.5z"/>
	<path class="st0" d="M23,13.8h4.5c-0.2-2.2-0.9-4.2-2.2-6L22.5,9L23,13.8z"/>
	<polygon class="st0" points="16.2,27.6 16.2,27.6 16.2,27.6 	"/>
	<path class="st0" d="M8.8,4C7.9,4.6,7,5.2,6.2,6L8,6.7L8.8,4z"/>
	<path class="st0" d="M9.8,20.4l2.2-0.3l1.3-2.4l-1.5-1.6H9.3C9.4,17.7,9.5,19.1,9.8,20.4z"/>
	<polygon class="st0" points="9.7,9.6 9.3,13.8 12.5,13.8 13.8,12.4 13.8,12.5 13.8,10.1 	"/>
	<path class="st0" d="M6.2,24c0.7,0.7,1.9,1.6,2.6,2L8,23.3L6.2,24z"/>
	<path class="st0" d="M7.5,9L4.6,7.9c-1.2,1.6-2,4-2.1,5.9H7L7.5,9z"/>
	<path class="st0" d="M7,16.2H2.5c0,1.7,1.2,4.9,2.1,5.9L7.5,21L7,16.2z"/>
	<path class="st1" d="M16.1,27.2c-0.6-0.4-1.6-1.1-2.3-1.7l0,2.1c-0.7-0.1-1.3-0.2-2.1-0.4c-0.7-1.6-1.2-3.1-1.5-4.4
		c0.4-0.1,0.8-0.1,1.2-0.2C11.2,22,11,21.4,11,21.4l1.1-1.9l-2.3,0.9c-0.2-1.3-0.4-2.8-0.4-4.2h2.5l-0.7-0.7l1.4-1.6H9.3l0.4-4.2
		l4.1,0.5v2.4l2.8,2.6c0,0,2.8-1.2,5.9-0.7c2.6,0.4,5.4,1.7,6.8,3.6c0,0,0.5-0.9,0.5-1.8c0,0,0.1-1.7,0-2.5
		c-0.1-0.4-0.1-0.8-0.2-1.2C28.8,7.7,26.2,4.2,22,1.8c-1.8-1-3.8-1.6-5.9-1.7c0,0-2.3,0-2.5,0c-0.4,0-0.8,0.1-1.1,0.2
		C7.7,1.2,4.2,3.8,1.9,7.9c-1.3,2.4-1.9,5-1.8,7.7c0.4,5.9,3.3,10.2,8.6,12.9c1.9,0.9,3.9,1.4,6,1.4c0.3,0,0.6,0,0.9,0
		c2.8-0.3,3.5-0.4,5.1-1.3c-0.9-0.1-1.3-0.1-2.7-0.5C17.4,27.9,16.5,27.5,16.1,27.2z M27.5,13.8H23L22.5,9l2.9-1.1
		C26.6,9.6,27.3,11.6,27.5,13.8z M23.8,6L22,6.7L21.2,4C22.1,4.6,23,5.2,23.8,6z M16.2,2.5l0.3,0c0.5,0.1,1,0.2,1.5,0.2
		c0.2,0,0.3,0.1,0.4,0.4c0.3,1,0.6,2,1,3l0.4,1.2c-1.1,0.2-2.3,0.4-3.5,0.4V2.5z M16.2,10.1l4-0.5c0.2,1.3,0.4,2.8,0.4,4.2h-4.5
		V10.1z M10.3,7.2c0.1-0.3,0.1-0.6,0.2-0.9c0.4-1.1,0.8-2.3,1.2-3.4c0,0,0-0.1,0-0.1c0.7-0.2,1.4-0.3,2.1-0.4v5.3
		c-0.7,0-2.5-0.2-3.6-0.5L10.3,7.2z M8.8,4L8,6.7L6.2,6C7,5.2,7.9,4.6,8.8,4z M4.6,7.9L7.5,9L7,13.8H2.5C2.6,11.9,3.5,9.5,4.6,7.9z
		 M2.5,16.2H7L7.5,21l-2.9,1.1C3.7,21.1,2.5,17.8,2.5,16.2z M6.2,24L8,23.3L8.8,26C8.1,25.5,6.9,24.6,6.2,24z"/>
</g>
<path class="st2" d="M27,29.4l-2.8-2.8c-0.4,0.2-0.9,0.3-1.5,0.4s-1.1,0.1-1.7,0.1c-1.8,0-3.5-0.5-5.1-1.6s-2.7-2.5-3.4-4.4
	c0.2-0.6,0.6-1.3,1-1.9c0.5-0.6,1-1.2,1.6-1.8l-2.3-2.2l0.9-1l14.1,14.1L27,29.4z M21,24.4c0.1,0,0.3,0,0.4,0c0.2,0,0.3-0.1,0.4-0.1
	L18,20.4c0,0.1-0.1,0.2-0.1,0.4c0,0.1,0,0.3,0,0.4c0,0.9,0.3,1.6,0.9,2.2C19.4,24.1,20.1,24.4,21,24.4z M26.5,25.2l-2.7-2.8
	c0.1-0.1,0.2-0.3,0.2-0.6c0.1-0.2,0.1-0.5,0.1-0.7c0-0.9-0.3-1.6-0.9-2.2s-1.3-0.9-2.2-0.9c-0.2,0-0.4,0-0.6,0.1
	c-0.2,0-0.4,0.1-0.6,0.2L17.4,16c0.4-0.2,1-0.4,1.7-0.5s1.4-0.2,2-0.2c1.8,0,3.5,0.5,5,1.6s2.7,2.5,3.4,4.4
	c-0.3,0.8-0.7,1.6-1.2,2.2C27.7,24.1,27.1,24.7,26.5,25.2z M22.4,21.1L21,19.7c0.2-0.1,0.3-0.1,0.6-0.1s0.4,0.1,0.6,0.2
	c0.2,0.2,0.3,0.3,0.3,0.5C22.5,20.5,22.5,20.8,22.4,21.1z"/>
</svg>
