<?xml version="1.0" encoding="utf-8"?>
<!-- Generator: Adobe Illustrator 24.2.0, SVG Export Plug-In . SVG Version: 6.00 Build 0)  -->
<svg version="1.1" id="Layer_1" xmlns="http://www.w3.org/2000/svg" xmlns:xlink="http://www.w3.org/1999/xlink" x="0px" y="0px"
	 viewBox="0 0 30 30" style="enable-background:new 0 0 30 30;" xml:space="preserve">
<style type="text/css">
	.st0{fill:#011839;}
	.st1{fill:#5059CD;}
</style>
<path class="st0" d="M3.3,3.3v18.2h23.5V3.3H3.3z M0.3,4.1c0-2.2,1.3-3.8,2.9-3.8h23.5c1.7,0,2.9,1.7,2.9,3.8v17
	c0,2.1-1.3,3.8-2.9,3.8H3.3c-1.7,0-2.9-1.7-2.9-3.8V4.1z M6.2,26.7h17.6c0.8,0,1.5,0.7,1.5,1.5s-0.7,1.5-1.5,1.5H6.2
	c-0.8,0-1.5-0.7-1.5-1.5S5.4,26.7,6.2,26.7z"/>
<path class="st1" d="M21.4,10c0.1,0.2,0,0.5-0.2,0.7L20,11.8c0,0.2,0,0.5,0,0.7s0,0.5,0,0.7l1.2,1.1c0.2,0.2,0.3,0.4,0.2,0.7
	c-0.1,0.3-0.3,0.6-0.4,0.9l-0.1,0.1c-0.2,0.3-0.4,0.6-0.6,0.8c-0.2,0.2-0.4,0.3-0.7,0.2l-1.5-0.5c-0.4,0.3-0.8,0.5-1.2,0.7l-0.3,1.6
	c-0.1,0.2-0.2,0.4-0.5,0.5c-0.4,0.1-0.8,0.1-1.2,0.1s-0.8,0-1.2-0.1c-0.2,0-0.4-0.2-0.5-0.5L13,17.1c-0.4-0.2-0.8-0.4-1.2-0.7
	l-1.5,0.5c-0.2,0.1-0.5,0-0.7-0.2c-0.2-0.3-0.4-0.5-0.6-0.8L9,15.7c-0.2-0.3-0.3-0.6-0.4-0.9c-0.1-0.2,0-0.5,0.2-0.7L9.9,13
	c0-0.2,0-0.5,0-0.7c0-0.2,0-0.5,0-0.7l-1.2-1.1c-0.2-0.2-0.3-0.4-0.2-0.7C8.6,9.6,8.8,9.3,8.9,9l0.2-0.2c0.2-0.3,0.4-0.6,0.6-0.8
	c0.2-0.2,0.4-0.3,0.7-0.2l1.5,0.5c0.4-0.3,0.8-0.5,1.2-0.7l0.3-1.6c0.1-0.2,0.2-0.4,0.5-0.5c0.4-0.1,0.8-0.1,1.2-0.1s0.8,0,1.2,0.1
	c0.2,0,0.4,0.2,0.5,0.5L17,7.7c0.4,0.2,0.8,0.4,1.2,0.7l1.5-0.5c0.2-0.1,0.5,0,0.7,0.2c0.2,0.3,0.4,0.5,0.6,0.8L21,9
	C21.2,9.3,21.3,9.6,21.4,10L21.4,10z M15,14.5c1.2,0,2.2-1,2.2-2.2s-1-2.2-2.2-2.2s-2.2,1-2.2,2.2S13.8,14.5,15,14.5z"/>
</svg>
