<svg xmlns="http://www.w3.org/2000/svg" width="30" height="30" viewBox="0 0 30 30"><defs><style>.a{fill:#011839;}.b{fill:#5059cd;}</style></defs><g transform="translate(-1 -1)"><path class="a" d="M30,22H2a1,1,0,0,0-1,1v7a1,1,0,0,0,1,1H30a1,1,0,0,0,1-1V23A1,1,0,0,0,30,22Zm-1,7H3V24H29Z"/><path class="a" d="M6.05,27.5h1a1,1,0,0,0,0-2h-1a1,1,0,0,0,0,2Z"/><path class="a" d="M10.05,27.5h1a1,1,0,1,0,0-2h-1a1,1,0,0,0,0,2Z"/><path class="a" d="M16,27.5H26a1,1,0,0,0,0-2H16a1,1,0,0,0,0,2Z"/><path class="a" d="M26.41,14.72a.991.991,0,0,0,1.41-.03,8.26,8.26,0,0,0,0-11.38,1,1,0,0,0-1.44,1.38,6.27,6.27,0,0,1,0,8.62,1,1,0,0,0,.03,1.41Z"/><path class="a" d="M5.1,15a.985.985,0,0,0,.69-1.69,6.27,6.27,0,0,1,0-8.62A1,1,0,1,0,4.38,3.31a8.26,8.26,0,0,0,0,11.38A1,1,0,0,0,5.1,15Z"/><path class="b" d="M15.41,20.81a1,1,0,0,0,1.18,0C16.89,20.59,24,15.34,24,9A8,8,0,1,0,8,9C8,15.34,15.11,20.59,15.41,20.81ZM16,5a4,4,0,1,1-4,4A4,4,0,0,1,16,5Z"/></g></svg>