<?xml version="1.0" encoding="utf-8"?>
<!-- Generator: Adobe Illustrator 24.2.0, SVG Export Plug-In . SVG Version: 6.00 Build 0)  -->
<svg version="1.1" id="Layer_1" xmlns="http://www.w3.org/2000/svg" xmlns:xlink="http://www.w3.org/1999/xlink" x="0px" y="0px"
	 viewBox="0 0 30 30" style="enable-background:new 0 0 30 30;" xml:space="preserve">
<style type="text/css">
	.st0{fill:#5059CD;}
	.st1{fill:#011839;}
</style>
<path class="st0" d="M21.1,26.8H25c0.2,0,0.3,0,0.4-0.1s0.2-0.2,0.3-0.3l1.3-3.1c0-0.1,0-0.1,0.1-0.3c0-0.1,0-0.2,0-0.3v-0.4
	c0-0.2,0-0.3-0.1-0.4c-0.1-0.1-0.2-0.1-0.4-0.1H23l0.5-2.4c0-0.1,0-0.2,0-0.3c0-0.1-0.1-0.1-0.1-0.2L23,18.7l-2.8,3L20.1,22
	c0,0.1-0.1,0.2-0.1,0.3v3.5c0,0.3,0.1,0.5,0.3,0.7C20.6,26.7,20.8,26.8,21.1,26.8z M23.2,30c-0.9,0-1.8-0.2-2.7-0.5
	c-0.8-0.4-1.6-0.9-2.2-1.5c-0.6-0.6-1.1-1.3-1.5-2.2c-0.4-0.8-0.5-1.7-0.5-2.7c0-0.9,0.2-1.8,0.5-2.7c0.4-0.8,0.9-1.6,1.5-2.2
	c0.6-0.6,1.3-1.1,2.2-1.5c0.8-0.4,1.7-0.5,2.7-0.5c0.9,0,1.8,0.2,2.7,0.5c0.8,0.4,1.6,0.8,2.2,1.5c0.6,0.6,1.1,1.3,1.5,2.2
	s0.5,1.7,0.5,2.7c0,0.9-0.2,1.8-0.5,2.7c-0.4,0.8-0.8,1.6-1.5,2.2c-0.6,0.6-1.3,1.1-2.2,1.5C25,29.8,24.1,30,23.2,30z"/>
<g>
	<path class="st1" d="M14.8,15.3l-6.8,4l-1-2l5.7-3.3V7.1h2.1V15.3z"/>
	<path class="st1" d="M15.7,25.3c-0.5,0.1-1,0.1-1.6,0.1c-6.2,0-11.3-5.1-11.3-11.3S7.9,2.8,14.1,2.8s11.3,5.1,11.3,11.3
		c0,0.5-0.1,1.1-0.1,1.6c0.3,0.1,0.6,0.2,0.9,0.3c0.7,0.3,1.2,0.7,1.8,1.1c0.2-1,0.3-1.9,0.3-3C28.3,6.4,21.9,0,14.1,0S0,6.4,0,14.1
		s6.4,14.1,14.1,14.1c1,0,2-0.1,3-0.3c-0.4-0.5-0.8-1.1-1.1-1.8C15.9,25.9,15.8,25.6,15.7,25.3z"/>
	<polygon class="st1" points="12.7,14 7.1,17.2 8.1,19.2 14.8,15.3 14.8,7.1 12.7,7.1 	"/>
</g>
</svg>
