<svg xmlns="http://www.w3.org/2000/svg" width="30" height="30" viewBox="0 0 30 30">
  <g id="code" transform="translate(-1 -1)">
    <path id="Path_18" data-name="Path 18" d="M18,13H14a1,1,0,0,0,0,2h4a1,1,0,0,0,0-2Z" fill="#011839"/>
    <path id="Path_19" data-name="Path 19" d="M22,13h-.5a1,1,0,0,0,0,2H22a1,1,0,0,0,0-2Z" fill="#011839"/>
    <path id="Path_20" data-name="Path 20" d="M22,9H14a1,1,0,0,0,0,2h8a1,1,0,0,0,0-2Z" fill="#011839"/>
    <path id="Path_21" data-name="Path 21" d="M10,9H6a1,1,0,0,0-1,1v4a1,1,0,0,0,1,1h4a1,1,0,0,0,1-1V10A1,1,0,0,0,10,9ZM9,13H7V11H9Z" fill="#011839"/>
    <path id="Path_24" data-name="Path 24" d="M26,1H2A1,1,0,0,0,1,2V26a1,1,0,0,0,1,1H9a1,1,0,0,0,0-2H3V7H25v7a1,1,0,0,0,2,0V2A1,1,0,0,0,26,1ZM3,5V3H25V5Z" fill="#011839"/>
    <path id="mouse_FILL1_wght700_GRAD0_opsz48" d="M13.742,16.023A4.973,4.973,0,0,1,8.75,11.031V7.757h10v3.273a4.987,4.987,0,0,1-5.008,4.992ZM8.75,6.775A4.866,4.866,0,0,1,10.035,3.4a4.782,4.782,0,0,1,3.216-1.6V6.775Zm5.483,0V1.8a4.813,4.813,0,0,1,3.224,1.6A4.849,4.849,0,0,1,18.75,6.775Z" transform="translate(12.25 14.977)" fill="#5059cd"/>
    <path id="Path_25" data-name="Path 25" d="M5,18H17.749" transform="translate(0.965)" fill="none" stroke="#011839" stroke-linecap="round" stroke-width="2"/>
    <path id="Path_26" data-name="Path 26" d="M5,18H17.749" transform="translate(0.965 8)" fill="none" stroke="#011839" stroke-linecap="round" stroke-width="2"/>
    <path id="Path_27" data-name="Path 27" d="M5,18H17.749" transform="translate(0.965 3)" fill="#011839" stroke="#011839" stroke-linecap="round" stroke-width="2"/>
  </g>
</svg>
