<svg xmlns="http://www.w3.org/2000/svg" width="30" height="30" viewBox="0 0 30 30"><defs><style>.a{fill:#011839;}.b{fill:#5059cd;}</style></defs><g transform="translate(-1 -1)"><path class="a" d="M6,18.5a1,1,0,0,0,0,2h.9a1,1,0,0,0,0-2Z"/><path class="a" d="M6,25.5a1,1,0,0,0,0,2h.9a1,1,0,0,0,0-2Z"/><path class="a" d="M5.52,6.5h.9a1,1,0,0,0,0-2h-.9a1,1,0,0,0,0,2Z"/><path class="a" d="M10,6.5h7.52a1,1,0,0,0,0-2H10a1,1,0,0,0,0,2Z"/><path class="a" d="M5.52,11.5a1,1,0,0,0,0,2h.9a1,1,0,0,0,0-2Z"/><path class="a" d="M10,11.5a1,1,0,0,0,0,2h2a1,1,0,0,0,0-2Z"/><path class="a" d="M21,1H2A1,1,0,0,0,1,2V30a1,1,0,0,0,1,1H12a1,1,0,0,0,0-2H3V24H9.23a1,1,0,1,0,0-2H3V17H9.52a1,1,0,1,0,0-2H3V10H21a1,1,0,0,0,1-1V2A1,1,0,0,0,21,1ZM20,8H3V3H20Z"/><path class="b" d="M21,11A10,10,0,1,0,31,21,10,10,0,0,0,21,11Zm-.35,12.8a1,1,0,0,1-1.44,0l-1.93-2a1,1,0,0,1,0-1.42h0a1,1,0,0,1,1.42,0l1.21,1.24,3.35-3.46a1,1,0,0,1,1.42,0h0a1,1,0,0,1,0,1.42Z"/></g></svg>