<svg xmlns="http://www.w3.org/2000/svg" width="30" height="30" viewBox="0 0 30 30"><defs><style>.a{fill:#011839;}.b{fill:#5059cd;}</style></defs><g transform="translate(-20 -110)"><path class="a" d="M0,38.75A3.753,3.753,0,0,1,3.75,35h22.5A3.753,3.753,0,0,1,30,38.75v7.8a5.6,5.6,0,0,0-3.75-1.43H3.75A5.6,5.6,0,0,0,0,46.555ZM3.75,47h22.5A3.753,3.753,0,0,1,30,50.75V54.5a3.753,3.753,0,0,1-3.75,3.75H3.75A3.753,3.753,0,0,1,0,54.5V50.75A3.753,3.753,0,0,1,3.75,47Zm15,7.5a1.875,1.875,0,1,0-1.875-1.875A1.873,1.873,0,0,0,18.75,54.5Zm7.5-1.875A1.875,1.875,0,1,0,24.375,54.5,1.873,1.873,0,0,0,26.25,52.625Z" transform="translate(20 81.75)"/><path class="b" d="M0,35.75A3.753,3.753,0,0,1,3.75,32h22.5A3.753,3.753,0,0,1,30,35.75V39c-.4-1.726-2.309-2.43-3.75-2.43H3.75C2.309,36.57.242,36.976,0,39Z" transform="translate(20 78)"/></g></svg>