<svg width="300" height="300" viewBox="0 0 300 300" fill="none" xmlns="http://www.w3.org/2000/svg">
<g clip-path="url(#clip0_6_18)">
<rect width="300" height="300" fill="white"/>
<rect x="12" y="12" width="236" height="236" rx="36" stroke="#212121" stroke-width="24"/>
<circle cx="54" cy="54" r="12" fill="#212121"/>
<circle cx="88" cy="54" r="12" fill="#212121"/>
<g clip-path="url(#clip1_6_18)">
<path d="M234 258.833C243.297 258.833 250.833 251.297 250.833 242C250.833 232.703 243.297 225.167 234 225.167C224.703 225.167 217.167 232.703 217.167 242C217.167 251.297 224.703 258.833 234 258.833Z" fill="#5059CD" stroke="white" stroke-width="17"/>
<path d="M242.167 167.917V175.167H225.833V167.917V167.812L225.831 167.707C225.774 165.415 226.628 163.194 228.205 161.531C229.725 159.926 231.799 158.966 234 158.84C236.201 158.966 238.275 159.926 239.795 161.531C241.372 163.194 242.226 165.415 242.169 167.707L242.167 167.812V167.917ZM275.833 175.167V167.917C275.833 156.822 271.426 146.181 263.581 138.336C255.735 130.491 245.095 126.083 234 126.083C222.905 126.083 212.265 130.491 204.419 138.336C196.574 146.181 192.167 156.822 192.167 167.917V175.167C183.342 175.211 174.888 178.735 168.645 184.979C162.363 191.261 158.833 199.782 158.833 208.667V275.333C158.833 284.218 162.363 292.739 168.645 299.021C174.928 305.304 183.449 308.833 192.333 308.833H275.667C284.551 308.833 293.072 305.304 299.355 299.021C305.637 292.739 309.167 284.218 309.167 275.333V208.667C309.167 199.782 305.637 191.261 299.355 184.979C293.112 178.735 284.658 175.211 275.833 175.167ZM234 258.5C230.737 258.5 227.547 257.532 224.833 255.719C222.12 253.906 220.005 251.329 218.756 248.314C217.507 245.299 217.18 241.982 217.817 238.781C218.454 235.58 220.025 232.64 222.333 230.333C224.64 228.025 227.58 226.454 230.781 225.817C233.982 225.18 237.299 225.507 240.314 226.756C243.329 228.005 245.906 230.12 247.719 232.833C249.532 235.547 250.5 238.737 250.5 242C250.5 246.376 248.762 250.573 245.667 253.667C242.573 256.762 238.376 258.5 234 258.5Z" fill="#5059CD" stroke="white" stroke-width="17"/>
</g>
</g>
<defs>
<clipPath id="clip0_6_18">
<rect width="300" height="300" fill="white"/>
</clipPath>
<clipPath id="clip1_6_18">
<rect width="200" height="200" fill="white" transform="translate(134 117)"/>
</clipPath>
</defs>
</svg>
