<svg xmlns="http://www.w3.org/2000/svg" width="30" height="30" viewBox="0 0 30 30"><defs><style>.a{fill:#011839;}.b{fill:#5059cd;}</style></defs><g transform="translate(-1 -1)"><path class="a" d="M16,15.45a1,1,0,0,0-1,1v1a1,1,0,1,0,2,0v-1a1,1,0,0,0-1-1Z"/><path class="a" d="M16,5.55a1,1,0,0,0-1,1v6a1,1,0,0,0,2,0v-6A1,1,0,0,0,16,5.55Z"/><path class="a" d="M30,23a1,1,0,0,0,1-1V2a1,1,0,0,0-1-1H23a1,1,0,0,0-1,1V22a1,1,0,0,0,1,1h2.5v6H17V23h2.5a1,1,0,0,0,1-1V2a1,1,0,0,0-1-1h-7a1,1,0,0,0-1,1V22a1,1,0,0,0,1,1H15v6H6.5V24a1,1,0,0,0-2,0v5H2a1,1,0,0,0,0,2H30a1,1,0,0,0,0-2H27.5V23ZM13.5,3h5V21h-5ZM24,3h5V21H24Z"/><path class="a" d="M26.5,15.45a1,1,0,0,0-1,1v1a1,1,0,1,0,2,0v-1a1,1,0,0,0-1-1Z"/><path class="a" d="M26.5,5.55a1,1,0,0,0-1,1v6a1,1,0,1,0,2,0v-6A1,1,0,0,0,26.5,5.55Z"/><path class="b" d="M10,1H1V21h9ZM5.5,18.45h0a1,1,0,0,1-1-1v-1a1,1,0,0,1,1-1h0a1,1,0,0,1,1,1v1A1,1,0,0,1,5.5,18.45Zm0-4.9h0a1,1,0,0,1-1-1v-6a1,1,0,0,1,1-1h0a1,1,0,0,1,1,1v6A1,1,0,0,1,5.5,13.55Z"/></g></svg>